<?xml version="1.0" encoding="utf-8"?>
<!-- Generator: Adobe Illustrator 16.0.0, SVG Export Plug-In . SVG Version: 6.00 Build 0)  -->
<!DOCTYPE svg PUBLIC "-//W3C//DTD SVG 1.1//EN" "http://www.w3.org/Graphics/SVG/1.1/DTD/svg11.dtd">
<svg version="1.1" id="Layer_1" xmlns="http://www.w3.org/2000/svg" xmlns:xlink="http://www.w3.org/1999/xlink" x="0px" y="0px"
	 width="280px" height="265px" viewBox="0 0 280 265" enable-background="new 0 0 280 265" xml:space="preserve">
<g>
	<path fill="#F2F2F2" d="M274.431,247.075c0,7.107-5.786,12.873-12.926,12.873H18.495c-7.14,0-12.926-5.766-12.926-12.873V17.925
		c0-7.111,5.786-12.873,12.926-12.873h243.01c7.14,0,12.926,5.762,12.926,12.873V247.075z"/>
	<g>
		<g>
			<g opacity="0.6">
				<path fill="#FFFFFF" d="M257.118,237.407c0,2.02-1.646,3.658-3.676,3.658H151.479c-2.028,0-3.675-1.639-3.675-3.658v-32.086
					c0-2.021,1.646-3.661,3.675-3.661h101.963c2.03,0,3.676,1.64,3.676,3.661V237.407z"/>
			</g>
			<g>
				<polygon fill="#F3CA24" stroke="#F3CA24" stroke-width="0.5" stroke-linejoin="round" stroke-miterlimit="10" points="
					197.58,213.247 198.36,214.819 200.104,215.073 198.841,216.298 199.142,218.028 197.58,217.21 196.02,218.028 196.318,216.298 
					195.057,215.073 196.801,214.819 				"/>
				<polygon fill="#F3CA24" stroke="#F3CA24" stroke-width="0.5" stroke-linejoin="round" stroke-miterlimit="10" points="
					206.766,213.247 207.546,214.819 209.29,215.073 208.028,216.298 208.326,218.028 206.766,217.21 205.205,218.028 
					205.504,216.298 204.242,215.073 205.986,214.819 				"/>
				<polygon fill="#F3CA24" stroke="#F3CA24" stroke-width="0.5" stroke-linejoin="round" stroke-miterlimit="10" points="
					215.953,213.247 216.732,214.819 218.476,215.073 217.214,216.298 217.513,218.028 215.953,217.21 214.391,218.028 
					214.689,216.298 213.428,215.073 215.172,214.819 				"/>
				<polyline fill="#FFFFFF" stroke="#F3CA24" stroke-width="0.5" stroke-linejoin="round" stroke-miterlimit="10" points="
					215.953,213.247 216.732,214.819 218.476,215.073 217.214,216.298 217.513,218.028 215.953,217.21 				"/>
				<polygon fill="none" stroke="#F3CA24" stroke-width="0.5" stroke-linejoin="round" stroke-miterlimit="10" points="
					215.953,213.247 216.732,214.819 218.476,215.073 217.214,216.298 217.513,218.028 215.953,217.21 214.391,218.028 
					214.689,216.298 213.428,215.073 215.172,214.819 				"/>
				<polygon fill="#FFFFFF" stroke="#F3CA24" stroke-width="0.5" stroke-linejoin="round" stroke-miterlimit="10" points="
					225.138,213.247 225.917,214.819 227.662,215.073 226.399,216.298 226.697,218.028 225.138,217.21 223.578,218.028 
					223.877,216.298 222.613,215.073 224.357,214.819 				"/>
				<polygon fill="#FFFFFF" stroke="#F3CA24" stroke-width="0.5" stroke-linejoin="round" stroke-miterlimit="10" points="
					234.324,213.247 235.105,214.819 236.848,215.073 235.586,216.298 235.885,218.028 234.324,217.21 232.764,218.028 
					233.063,216.298 231.799,215.073 233.544,214.819 				"/>
			</g>
			<path fill="#D9D9D9" d="M250.172,228.563c0,0.506-0.412,0.916-0.92,0.916h-53.276c-0.508,0-0.919-0.41-0.919-0.916l0,0
				c0-0.504,0.411-0.914,0.919-0.914h53.276C249.76,227.649,250.172,228.06,250.172,228.563L250.172,228.563z"/>
			<path fill="#D9D9D9" d="M218.02,223.989c0,0.506-0.41,0.916-0.918,0.916h-21.126c-0.508,0-0.919-0.41-0.919-0.916l0,0
				c0-0.506,0.411-0.914,0.919-0.914h21.126C217.609,223.075,218.02,223.483,218.02,223.989L218.02,223.989z"/>
			<g>
				<path fill="#FFFFFF" d="M163.881,234.851v-19.107h3.385v-3.371h6.771v3.371h3.385v19.107H163.881z"/>
				<path fill="#3248E9" d="M167.266,235.524c-0.384,0-0.677-0.293-0.677-0.674v-14.613c0-0.381,0.293-0.674,0.677-0.674
					s0.676,0.293,0.676,0.674v14.613C167.941,235.231,167.649,235.524,167.266,235.524z"/>
				<path fill="#3248E9" d="M170.65,235.524c-0.383,0-0.676-0.293-0.676-0.674v-14.613c0-0.381,0.293-0.674,0.676-0.674
					c0.384,0,0.678,0.293,0.678,0.674v14.613C171.328,235.231,171.034,235.524,170.65,235.524z"/>
				<path fill="#3248E9" d="M174.037,235.524c-0.385,0-0.677-0.293-0.677-0.674v-14.613c0-0.381,0.292-0.674,0.677-0.674
					c0.383,0,0.676,0.293,0.676,0.674v14.613C174.713,235.231,174.42,235.524,174.037,235.524z"/>
				<path fill="#3248E9" d="M177.422,215.069h-2.709v-2.697c0-0.383-0.293-0.674-0.676-0.674h-2.709v-3.822
					c0-0.383-0.294-0.674-0.678-0.674c-0.383,0-0.676,0.291-0.676,0.674v3.822h-2.709c-0.384,0-0.677,0.291-0.677,0.674v2.697
					h-2.708c-0.385,0-0.678,0.291-0.678,0.674v19.107c0,0.381,0.293,0.674,0.678,0.674c0.383,0,0.676-0.293,0.676-0.674v-18.434
					h2.709c0.384,0,0.676-0.293,0.676-0.674v-2.697h5.419v2.697c0,0.381,0.292,0.674,0.677,0.674h2.706v18.434
					c0,0.381,0.295,0.674,0.679,0.674c0.385,0,0.676-0.293,0.676-0.674v-19.107C178.098,215.36,177.807,215.069,177.422,215.069z"/>
			</g>
		</g>
		<g>
			<g opacity="0.6">
				<path fill="#FFFFFF" d="M257.118,174.075c0,2.021-1.646,3.658-3.676,3.658H151.479c-2.028,0-3.675-1.637-3.675-3.658v-32.086
					c0-2.021,1.646-3.659,3.675-3.659h101.963c2.03,0,3.676,1.638,3.676,3.659V174.075z"/>
			</g>
			<g>
				<polygon fill="#F3CA24" stroke="#F3CA24" stroke-width="0.5" stroke-linejoin="round" stroke-miterlimit="10" points="
					197.58,149.917 198.36,151.491 200.104,151.742 198.841,152.967 199.142,154.696 197.58,153.879 196.02,154.696 
					196.318,152.967 195.057,151.742 196.801,151.491 				"/>
				<polygon fill="#F3CA24" stroke="#F3CA24" stroke-width="0.5" stroke-linejoin="round" stroke-miterlimit="10" points="
					206.766,149.917 207.546,151.491 209.29,151.742 208.028,152.967 208.326,154.696 206.766,153.879 205.205,154.696 
					205.504,152.967 204.242,151.742 205.986,151.491 				"/>
				<polygon fill="#F3CA24" stroke="#F3CA24" stroke-width="0.5" stroke-linejoin="round" stroke-miterlimit="10" points="
					215.953,149.917 216.732,151.491 218.476,151.742 217.214,152.967 217.513,154.696 215.953,153.879 214.391,154.696 
					214.689,152.967 213.428,151.742 215.172,151.491 				"/>
				<polygon fill="#FFFFFF" stroke="#F3CA24" stroke-width="0.5" stroke-linejoin="round" stroke-miterlimit="10" points="
					225.138,149.917 225.917,151.491 227.662,151.742 226.399,152.967 226.697,154.696 225.138,153.879 223.578,154.696 
					223.877,152.967 222.613,151.742 224.357,151.491 				"/>
				<polygon fill="#FFFFFF" stroke="#F3CA24" stroke-width="0.5" stroke-linejoin="round" stroke-miterlimit="10" points="
					234.324,149.917 235.105,151.491 236.848,151.742 235.586,152.967 235.885,154.696 234.324,153.879 232.764,154.696 
					233.063,152.967 231.799,151.742 233.544,151.491 				"/>
			</g>
			<path fill="#D9D9D9" d="M250.172,165.231c0,0.506-0.412,0.916-0.92,0.916h-53.276c-0.508,0-0.919-0.41-0.919-0.916l0,0
				c0-0.505,0.411-0.912,0.919-0.912h53.276C249.76,164.319,250.172,164.727,250.172,165.231L250.172,165.231z"/>
			<path fill="#D9D9D9" d="M218.02,160.658c0,0.505-0.41,0.915-0.918,0.915h-21.126c-0.508,0-0.919-0.41-0.919-0.915l0,0
				c0-0.506,0.411-0.915,0.919-0.915h21.126C217.609,159.743,218.02,160.152,218.02,160.658L218.02,160.658z"/>
			<path fill="#3248E9" d="M166.773,143.87v0.644h-2.585v1.501l-7.757,3.221v22.959h1.293v-22.1l6.464-2.685v24.784h1.292v-26.394
				h2.586v-0.644h4.523v0.644h2.586v26.394h1.292v-21.242h7.109v21.242h1.292v-22.529h-8.401v-5.151h-2.585v-0.644H166.773z"/>
		</g>
		<g>
			<g opacity="0.6">
				<path fill="#FFFFFF" d="M257.118,110.744c0,2.021-1.646,3.659-3.676,3.659H151.479c-2.028,0-3.675-1.639-3.675-3.659V78.658
					c0-2.021,1.646-3.66,3.675-3.66h101.963c2.03,0,3.676,1.64,3.676,3.66V110.744z"/>
			</g>
			<path fill="#D9D9D9" d="M250.172,101.902c0,0.505-0.412,0.915-0.92,0.915h-53.276c-0.508,0-0.919-0.41-0.919-0.915l0,0
				c0-0.506,0.411-0.915,0.919-0.915h53.276C249.76,100.987,250.172,101.396,250.172,101.902L250.172,101.902z"/>
			<path fill="#D9D9D9" d="M218.02,97.326c0,0.505-0.41,0.915-0.918,0.915h-21.126c-0.508,0-0.919-0.41-0.919-0.915l0,0
				c0-0.503,0.411-0.913,0.919-0.913h21.126C217.609,96.413,218.02,96.823,218.02,97.326L218.02,97.326z"/>
			<g>
				<polygon fill="#F3CA24" stroke="#F3CA24" stroke-width="0.5" stroke-linejoin="round" stroke-miterlimit="10" points="
					197.58,86.585 198.36,88.158 200.104,88.41 198.841,89.637 199.142,91.364 197.58,90.55 196.02,91.364 196.318,89.637 
					195.057,88.41 196.801,88.158 				"/>
				<polygon fill="#F3CA24" stroke="#F3CA24" stroke-width="0.5" stroke-linejoin="round" stroke-miterlimit="10" points="
					206.766,86.585 207.546,88.158 209.29,88.41 208.028,89.637 208.326,91.364 206.766,90.55 205.205,91.364 205.504,89.637 
					204.242,88.41 205.986,88.158 				"/>
				<polygon fill="#F3CA24" stroke="#F3CA24" stroke-width="0.5" stroke-linejoin="round" stroke-miterlimit="10" points="
					215.953,86.585 216.732,88.158 218.476,88.41 217.214,89.637 217.513,91.364 215.953,90.55 214.391,91.364 214.689,89.637 
					213.428,88.41 215.172,88.158 				"/>
				<polygon fill="#F3CA24" stroke="#F3CA24" stroke-width="0.5" stroke-linejoin="round" stroke-miterlimit="10" points="
					225.138,86.585 225.917,88.158 227.662,88.41 226.399,89.637 226.697,91.364 225.138,90.55 223.578,91.364 223.877,89.637 
					222.613,88.41 224.357,88.158 				"/>
				<polygon fill="#F3CA24" stroke="#F3CA24" stroke-width="0.5" stroke-linejoin="round" stroke-miterlimit="10" points="
					234.324,86.585 235.105,88.158 236.848,88.41 235.586,89.637 235.885,91.364 234.324,90.55 232.764,91.364 233.063,89.637 
					231.799,88.41 233.544,88.158 				"/>
				<polyline fill="#FFFFFF" stroke="#F3CA24" stroke-width="0.5" stroke-linejoin="round" stroke-miterlimit="10" points="
					234.324,86.585 235.105,88.158 236.848,88.41 235.586,89.637 235.885,91.364 234.324,90.55 				"/>
				<polygon fill="none" stroke="#F3CA24" stroke-width="0.5" stroke-linejoin="round" stroke-miterlimit="10" points="
					234.324,86.585 235.105,88.158 236.848,88.41 235.586,89.637 235.885,91.364 234.324,90.55 232.764,91.364 233.063,89.637 
					231.799,88.41 233.544,88.158 				"/>
			</g>
			<path fill="#3248E9" d="M170.639,80.54c-0.102,0.003-0.199,0.027-0.287,0.073l-13.573,7.08c-0.212,0.112-0.347,0.332-0.347,0.571
				v19.954c0,0.356,0.289,0.644,0.646,0.644h4.524c0.356,0,0.646-0.287,0.646-0.644V97.275h16.804v10.943
				c0,0.356,0.288,0.644,0.646,0.644h4.524c0.356,0,0.646-0.287,0.646-0.644V88.265c0-0.239-0.134-0.459-0.346-0.571l-13.571-7.08
				C170.855,80.563,170.747,80.538,170.639,80.54z M170.65,81.91l12.927,6.744v18.92h-3.231V96.74c0.01-0.069,0.01-0.141,0-0.209
				v-5.049c0-0.354-0.291-0.644-0.646-0.644h-18.097c-0.358,0-0.646,0.289-0.646,0.644v5.042c-0.014,0.07-0.014,0.141,0,0.211
				v10.839h-3.232v-18.92L170.65,81.91z M162.249,92.126h16.804v3.862h-16.804V92.126z M168.713,93.414
				c-0.232-0.003-0.451,0.118-0.569,0.319c-0.115,0.201-0.115,0.448,0,0.648c0.118,0.201,0.337,0.323,0.569,0.319h3.877
				c0.232,0.004,0.449-0.118,0.565-0.319c0.118-0.2,0.118-0.447,0-0.648c-0.116-0.201-0.333-0.322-0.565-0.319H168.713z"/>
		</g>
		<g>
			<g opacity="0.6">
				<path fill="#FFFFFF" d="M129.15,237.407c0,2.02-1.645,3.658-3.675,3.658H23.512c-2.029,0-3.674-1.639-3.674-3.658v-32.086
					c0-2.021,1.645-3.661,3.674-3.661h101.964c2.03,0,3.675,1.64,3.675,3.661V237.407z"/>
			</g>
			<g>
				<path fill="#3248E9" d="M33.88,207.071v16.443h-2.03v-3.371h-1.356v3.371h-2.029v0.674v11.467h11.509h9.48v-23.414l-2.032-0.674
					v-4.235h-1.353v3.784l-1.355-0.449v-3.335H43.36v2.886L33.88,207.071z M35.236,208.941l12.863,4.272v21.09h-3.385v-2.119
					c1.161-0.305,2.032-1.352,2.032-2.6c0-1.48-1.222-2.697-2.708-2.697s-2.709,1.217-2.709,2.697c0,1.248,0.872,2.295,2.033,2.6
					v2.119h-3.386v-10.789h-4.738V208.941z M36.589,212.726v1.35h4.062v-1.35H36.589z M50.807,214.749v1.348h4.739v18.207h-4.739
					v1.352h6.095v-20.906H50.807z M36.589,215.423v1.348h10.156v-1.348H36.589z M50.807,217.448v2.021h3.386v-2.021H50.807z
					 M36.589,218.122v1.348h5.417v-1.348H36.589z M43.36,218.122v1.348h3.385v-1.348H43.36z M36.589,220.819v1.348h10.156v-1.348
					H36.589z M50.807,220.819v2.021h3.386v-2.021H50.807z M41.327,223.515v1.35h5.418v-1.35H41.327z M50.807,224.188v2.023h3.386
					v-2.023H50.807z M29.818,224.864h8.803v9.439h-8.803V224.864z M31.172,226.212v1.35h2.031v-1.35H31.172z M35.236,226.212v1.35
					h2.03v-1.35H35.236z M50.807,227.562v2.023h3.386v-2.023H50.807z M44.037,228.237c0.757,0,1.356,0.594,1.356,1.348
					c0,0.752-0.599,1.348-1.356,1.348c-0.755,0-1.353-0.596-1.353-1.348C42.684,228.831,43.282,228.237,44.037,228.237
					L44.037,228.237z M31.172,228.911v1.348h2.031v-1.348H31.172z M35.236,228.911v1.348h2.03v-1.348H35.236z M50.807,230.933v2.023
					h3.386v-2.023H50.807z M31.172,231.606v1.35h2.031v-1.35H31.172z M35.236,231.606v1.35h2.03v-1.35H35.236z"/>
			</g>
			<g>
				<polygon fill="#F3CA24" stroke="#F3CA24" stroke-width="0.5" stroke-linejoin="round" stroke-miterlimit="10" points="
					69.612,213.247 70.392,214.819 72.136,215.073 70.873,216.298 71.174,218.028 69.612,217.21 68.052,218.028 68.351,216.298 
					67.089,215.073 68.833,214.819 				"/>
				<polygon fill="#F3CA24" stroke="#F3CA24" stroke-width="0.5" stroke-linejoin="round" stroke-miterlimit="10" points="
					78.798,213.247 79.578,214.819 81.323,215.073 80.06,216.298 80.358,218.028 78.798,217.21 77.238,218.028 77.536,216.298 
					76.275,215.073 78.019,214.819 				"/>
				<polygon fill="#F3CA24" stroke="#F3CA24" stroke-width="0.5" stroke-linejoin="round" stroke-miterlimit="10" points="
					87.984,213.247 88.765,214.819 90.508,215.073 89.247,216.298 89.545,218.028 87.984,217.21 86.423,218.028 86.723,216.298 
					85.46,215.073 87.205,214.819 				"/>
				<polygon fill="#F3CA24" stroke="#F3CA24" stroke-width="0.5" stroke-linejoin="round" stroke-miterlimit="10" points="
					97.169,213.247 97.95,214.819 99.694,215.073 98.432,216.298 98.729,218.028 97.169,217.21 95.609,218.028 95.908,216.298 
					94.646,215.073 96.39,214.819 				"/>
				<polygon fill="#FFFFFF" stroke="#F3CA24" stroke-width="0.5" stroke-linejoin="round" stroke-miterlimit="10" points="
					106.357,213.247 107.137,214.819 108.88,215.073 107.618,216.298 107.917,218.028 106.357,217.21 104.797,218.028 
					105.094,216.298 103.832,215.073 105.576,214.819 				"/>
			</g>
			<path fill="#D9D9D9" d="M122.204,228.563c0,0.506-0.411,0.916-0.919,0.916H68.008c-0.508,0-0.919-0.41-0.919-0.916l0,0
				c0-0.504,0.411-0.914,0.919-0.914h53.277C121.792,227.649,122.204,228.06,122.204,228.563L122.204,228.563z"/>
			<path fill="#D9D9D9" d="M90.053,223.989c0,0.506-0.411,0.916-0.919,0.916H68.008c-0.508,0-0.919-0.41-0.919-0.916l0,0
				c0-0.506,0.411-0.914,0.919-0.914h21.126C89.642,223.075,90.053,223.483,90.053,223.989L90.053,223.989z"/>
		</g>
		<g>
			<g>
				
					<image overflow="visible" opacity="0.16" width="141" height="70" xlink:href="E1F779E1.png"  transform="matrix(1 0 0 1 4 123)">
				</image>
				<g>
					<path fill="#FFFFFF" d="M129.15,174.075c0,2.021-1.645,3.658-3.675,3.658H23.512c-2.029,0-3.674-1.637-3.674-3.658v-32.086
						c0-2.021,1.645-3.659,3.674-3.659h101.964c2.03,0,3.675,1.638,3.675,3.659V174.075z"/>
				</g>
			</g>
			<g>
				<polygon fill="#F3CA24" stroke="#F3CA24" stroke-width="0.5" stroke-linejoin="round" stroke-miterlimit="10" points="
					69.612,149.917 70.392,151.491 72.136,151.742 70.873,152.967 71.174,154.696 69.612,153.879 68.052,154.696 68.351,152.967 
					67.089,151.742 68.833,151.491 				"/>
				<polygon fill="#F3CA24" stroke="#F3CA24" stroke-width="0.5" stroke-linejoin="round" stroke-miterlimit="10" points="
					78.798,149.917 79.578,151.491 81.323,151.742 80.06,152.967 80.358,154.696 78.798,153.879 77.238,154.696 77.536,152.967 
					76.275,151.742 78.019,151.491 				"/>
				<polygon fill="#F3CA24" stroke="#F3CA24" stroke-width="0.5" stroke-linejoin="round" stroke-miterlimit="10" points="
					87.984,149.917 88.765,151.491 90.508,151.742 89.247,152.967 89.545,154.696 87.984,153.879 86.423,154.696 86.723,152.967 
					85.46,151.742 87.205,151.491 				"/>
				<polygon fill="#F3CA24" stroke="#F3CA24" stroke-width="0.5" stroke-linejoin="round" stroke-miterlimit="10" points="
					97.169,149.917 97.95,151.491 99.694,151.742 98.432,152.967 98.729,154.696 97.169,153.879 95.609,154.696 95.908,152.967 
					94.646,151.742 96.39,151.491 				"/>
				<polygon fill="#F3CA24" stroke="#F3CA24" stroke-width="0.5" stroke-linejoin="round" stroke-miterlimit="10" points="
					106.357,149.917 107.137,151.491 108.88,151.742 107.618,152.967 107.917,154.696 106.357,153.879 104.797,154.696 
					105.094,152.967 103.832,151.742 105.576,151.491 				"/>
			</g>
			<path fill="#D9D9D9" d="M122.204,165.231c0,0.506-0.411,0.916-0.919,0.916H68.008c-0.508,0-0.919-0.41-0.919-0.916l0,0
				c0-0.505,0.411-0.912,0.919-0.912h53.277C121.792,164.319,122.204,164.727,122.204,165.231L122.204,165.231z"/>
			<path fill="#D9D9D9" d="M90.053,160.658c0,0.505-0.411,0.915-0.919,0.915H68.008c-0.508,0-0.919-0.41-0.919-0.915l0,0
				c0-0.506,0.411-0.915,0.919-0.915h21.126C89.642,159.743,90.053,160.152,90.053,160.658L90.053,160.658z"/>
			<g>
				<path fill="#3248E9" d="M45.097,143.872c-0.081,0.01-0.159,0.035-0.232,0.075l-11.126,6.024
					c-0.199,0.105-0.325,0.313-0.328,0.538v1.981c0,0.34,0.277,0.616,0.618,0.616h1.234v2.598l1.238-0.674v-2.329l8.654-4.752
					l8.654,4.752v15.796h-4.946v1.231h5.564c0.341,0,0.618-0.276,0.618-0.615v-16.007h1.238c0.341,0,0.618-0.276,0.618-0.616v-1.981
					c-0.002-0.226-0.129-0.433-0.328-0.538l-11.128-6.024C45.339,143.89,45.218,143.862,45.097,143.872L45.097,143.872z
					 M45.155,145.18l10.51,5.695v1h-0.793l-9.427-5.156c-0.182-0.096-0.399-0.096-0.581,0l-9.427,5.156h-0.791v-1L45.155,145.18z
					 M38.917,154.953c-0.083,0.01-0.16,0.038-0.232,0.078l-9.892,5.405c-0.2,0.105-0.326,0.314-0.328,0.538v1.984
					c0,0.339,0.277,0.616,0.619,0.616h1.234v8.003c0,0.339,0.278,0.616,0.618,0.616h16.075c0.341,0,0.618-0.277,0.618-0.616v-8.003
					h1.234c0.341,0,0.619-0.277,0.619-0.616v-1.984c-0.002-0.224-0.126-0.433-0.328-0.538l-9.892-5.405
					C39.156,154.971,39.038,154.945,38.917,154.953L38.917,154.953z M38.975,156.263l9.273,5.079v1.001h-0.792l-8.173-4.541
					c-0.189-0.11-0.426-0.11-0.618,0l-8.172,4.541h-0.791v-1.001L38.975,156.263z M38.975,159.052l7.417,4.118v7.792H31.555v-7.792
					L38.975,159.052z"/>
			</g>
		</g>
		<g>
			<g opacity="0.6">
				<path fill="#FFFFFF" d="M129.15,110.744c0,2.021-1.645,3.659-3.675,3.659H23.512c-2.029,0-3.674-1.639-3.674-3.659V78.658
					c0-2.021,1.645-3.66,3.674-3.66h101.964c2.03,0,3.675,1.64,3.675,3.66V110.744z"/>
			</g>
			<path fill="#D9D9D9" d="M122.204,101.902c0,0.505-0.411,0.915-0.919,0.915H68.008c-0.508,0-0.919-0.41-0.919-0.915l0,0
				c0-0.506,0.411-0.915,0.919-0.915h53.277C121.792,100.987,122.204,101.396,122.204,101.902L122.204,101.902z"/>
			<path fill="#D9D9D9" d="M90.053,97.326c0,0.505-0.411,0.915-0.919,0.915H68.008c-0.508,0-0.919-0.41-0.919-0.915l0,0
				c0-0.503,0.411-0.913,0.919-0.913h21.126C89.642,96.413,90.053,96.823,90.053,97.326L90.053,97.326z"/>
			<g>
				<polygon fill="#F3CA24" stroke="#F3CA24" stroke-width="0.5" stroke-linejoin="round" stroke-miterlimit="10" points="
					69.612,86.585 70.392,88.158 72.136,88.41 70.873,89.637 71.174,91.364 69.612,90.55 68.052,91.364 68.351,89.637 67.089,88.41 
					68.833,88.158 				"/>
				<polygon fill="#F3CA24" stroke="#F3CA24" stroke-width="0.5" stroke-linejoin="round" stroke-miterlimit="10" points="
					78.798,86.585 79.578,88.158 81.323,88.41 80.06,89.637 80.358,91.364 78.798,90.55 77.238,91.364 77.536,89.637 76.275,88.41 
					78.019,88.158 				"/>
				<polygon fill="#F3CA24" stroke="#F3CA24" stroke-width="0.5" stroke-linejoin="round" stroke-miterlimit="10" points="
					87.984,86.585 88.765,88.158 90.508,88.41 89.247,89.637 89.545,91.364 87.984,90.55 86.423,91.364 86.723,89.637 85.46,88.41 
					87.205,88.158 				"/>
				<polygon fill="#FFFFFF" stroke="#F3CA24" stroke-width="0.5" stroke-linejoin="round" stroke-miterlimit="10" points="
					97.169,86.585 97.95,88.158 99.694,88.41 98.432,89.637 98.729,91.364 97.169,90.55 95.609,91.364 95.908,89.637 94.646,88.41 
					96.39,88.158 				"/>
				<polygon fill="#FFFFFF" stroke="#F3CA24" stroke-width="0.5" stroke-linejoin="round" stroke-miterlimit="10" points="
					106.357,86.585 107.137,88.158 108.88,88.41 107.618,89.637 107.917,91.364 106.357,90.55 104.797,91.364 105.094,89.637 
					103.832,88.41 105.576,88.158 				"/>
			</g>
			<g>
				<path fill="#3248E9" d="M32.864,81.008V91.44h-4.586l0.099,16.954h9.101h1.311h9.134h9.167V83.615H46.613v0.653v12.389h-3.276
					V81.013L32.864,81.008z M34.173,82.313l7.854,0.005v14.34h-3.262l-0.01-5.217h-0.654h-3.928V82.313z M36.137,83.615v1.305h1.311
					v-1.305H36.137z M38.783,83.615v1.305h1.282v-1.305H38.783z M47.922,84.92h7.857v22.17H52.48v-2.607h-1.284v2.607h-3.274V96.657
					V84.92z M36.137,86.226v1.302h1.311v-1.302H36.137z M38.756,86.226v1.302h1.309v-1.302H38.756z M49.886,86.228v1.3h1.31v-1.3
					H49.886z M52.518,86.23v1.313h1.284V86.23H52.518z M49.886,88.843v1.295h1.31v-1.295H49.886z M52.518,88.843v1.295h1.284v-1.295
					H52.518z M49.886,91.44v1.305h1.31V91.44H49.886z M52.505,91.44v1.305h1.297V91.44H52.505z M29.593,92.745h7.855l0.007,3.912
					h-0.011l0.029,10.433H34.16v-2.607h-1.284v2.607h-3.197L29.593,92.745z M31.555,94.05v1.315h1.334V94.05H31.555z M34.198,94.05
					v1.315h1.285V94.05H34.198z M49.886,94.055v1.298h1.31v-1.298H49.886z M52.505,94.055v1.298h1.297v-1.298H52.505z
					 M31.555,96.647v1.314h1.334v-1.314H31.555z M34.198,96.647v1.314h1.285v-1.314H34.198z M49.886,96.652v1.314h1.31v-1.314
					H49.886z M52.518,96.652v1.314h1.284v-1.314H52.518z M38.768,97.962h7.846v9.128h-3.274v-2.607h-1.31v2.607h-3.244
					L38.768,97.962z M31.555,99.265v1.315h1.334v-1.315H31.555z M34.198,99.265v1.315h1.285v-1.315H34.198z M40.721,99.265v1.315
					h1.309v-1.315H40.721z M43.339,99.265v1.315h1.311v-1.315H43.339z M49.886,99.265v1.315h1.31v-1.315H49.886z M52.518,99.265
					v1.315h1.284v-1.315H52.518z M40.721,101.864v1.313h1.309v-1.313H40.721z M43.339,101.864v1.313h1.311v-1.313H43.339z
					 M49.886,101.864v1.313h1.31v-1.313H49.886z M52.518,101.864v1.313h1.284v-1.313H52.518z"/>
			</g>
		</g>
	</g>
	<g>
		<text transform="matrix(1.0041 0 0 1 57.8125 47.0483)" fill="#3248E9" font-family="'Roboto-Bold'" font-size="12.8736">185 Digital Marketing Agencies</text>
		<g>
			<g display="none">
				
					<image display="inline" overflow="visible" opacity="0.16" width="61" height="61" xlink:href="E1F779E3.png"  transform="matrix(1 0 0 1 8 12)">
				</image>
				<g display="inline">
					<path fill="#3248E9" d="M53.327,55.406c0,1.127-0.919,2.042-2.05,2.042H25.664c-1.133,0-2.049-0.915-2.049-2.042V29.897
						c0-1.129,0.916-2.041,2.049-2.041h25.613c1.131,0,2.05,0.912,2.05,2.041V55.406z"/>
				</g>
			</g>
			<path fill="#3248E9" d="M38.47,27.776c-1.113,0-2.03,0.912-2.03,2.023c0,0.87,0.571,1.614,1.353,1.896v2.823
				c-0.002,0.244,0.125,0.47,0.336,0.593c0.212,0.123,0.471,0.123,0.683,0c0.21-0.123,0.338-0.349,0.334-0.593v-2.823
				c0.785-0.282,1.355-1.026,1.355-1.896C40.502,28.688,39.583,27.776,38.47,27.776z M38.47,29.126c0.382,0,0.677,0.293,0.677,0.674
				c0,0.367-0.275,0.645-0.638,0.666c-0.016,0-0.031-0.002-0.049-0.002c-0.01,0.002-0.02,0.002-0.029,0.002
				c-0.362-0.021-0.638-0.301-0.638-0.666C37.793,29.419,38.089,29.126,38.47,29.126z M26.283,33.846
				c-1.113,0-2.032,0.913-2.032,2.022c0,1.11,0.918,2.023,2.032,2.023c0.481,0,0.921-0.179,1.272-0.463l5.15,3.064
				c0.321,0.191,0.737,0.088,0.929-0.233c0.193-0.319,0.088-0.733-0.232-0.925l-5.133-3.051c0.029-0.135,0.043-0.273,0.043-0.416
				C28.313,34.759,27.397,33.846,26.283,33.846z M50.657,33.846c-1.113,0-2.031,0.913-2.031,2.022c0,0.143,0.015,0.281,0.043,0.416
				l-5.13,3.051c-0.321,0.191-0.427,0.605-0.235,0.925c0.192,0.321,0.608,0.425,0.931,0.233l5.15-3.064
				c0.351,0.284,0.792,0.463,1.272,0.463c1.115,0,2.031-0.913,2.031-2.023C52.688,34.759,51.772,33.846,50.657,33.846z
				 M26.283,35.193c0.383,0,0.677,0.294,0.677,0.675s-0.294,0.676-0.677,0.676c-0.382,0-0.676-0.295-0.676-0.676
				S25.901,35.193,26.283,35.193z M50.657,35.193c0.382,0,0.677,0.294,0.677,0.675s-0.294,0.676-0.677,0.676
				s-0.678-0.295-0.678-0.676S50.275,35.193,50.657,35.193z M38.901,36.544c-1.545,0-2.724,0.533-3.333,1.486
				c-0.549,0.859-0.558,1.94-0.303,3.048c-0.128,0.227-0.209,0.489-0.171,0.821c0.042,0.385,0.136,0.691,0.316,0.939
				c0.065,0.092,0.185,0.096,0.274,0.163c0.092,0.358,0.187,0.73,0.367,0.97c0.124,0.169,0.252,0.313,0.373,0.427
				c0.003,0.005,0.011,0.008,0.016,0.013v0.669c-0.048,0.102-0.121,0.196-0.356,0.329c-0.261,0.146-0.65,0.297-1.073,0.502
				c-0.423,0.205-0.888,0.474-1.27,0.916c-0.381,0.443-0.644,1.062-0.687,1.816c-0.01,0.184,0.057,0.365,0.185,0.5
				s0.305,0.211,0.492,0.211h9.477c0.187,0,0.366-0.076,0.492-0.211c0.128-0.135,0.194-0.316,0.185-0.5
				c-0.041-0.755-0.306-1.373-0.687-1.816c-0.38-0.442-0.846-0.711-1.27-0.916c-0.422-0.205-0.811-0.358-1.072-0.502
				c-0.236-0.133-0.31-0.228-0.355-0.329v-0.677c0.006-0.006,0.013-0.012,0.021-0.018c0.116-0.118,0.245-0.262,0.366-0.43
				c0.174-0.238,0.265-0.596,0.356-0.944c0.089-0.066,0.208-0.071,0.274-0.163c0.18-0.248,0.277-0.553,0.319-0.938
				c0.028-0.257,0.005-0.497-0.086-0.721c-0.01-0.03-0.064-0.045-0.078-0.076c0.189-0.772,0.25-1.596-0.051-2.351
				c-0.285-0.722-1.025-1.217-1.947-1.396l-0.139-0.382C39.44,36.72,39.187,36.544,38.901,36.544L38.901,36.544z M38.455,37.967
				l0.058,0.155c0.096,0.266,0.351,0.443,0.634,0.443c0.809,0,1.042,0.252,1.217,0.693c0.177,0.44,0.156,1.158-0.046,1.806
				c-0.073,0.24-0.005,0.503,0.175,0.679c0,0.013,0.002,0,0,0.021c-0.022,0.19-0.051,0.229-0.061,0.245
				c-0.237,0.109-0.391,0.348-0.394,0.611c0,0.081-0.091,0.334-0.245,0.547c-0.077,0.105-0.162,0.202-0.229,0.269
				c-0.068,0.067-0.154,0.12-0.075,0.075c-0.211,0.118-0.342,0.342-0.342,0.584v1.172c0,0.072,0.014,0.145,0.039,0.216
				c0.184,0.54,0.61,0.878,1.003,1.101c0.395,0.222,0.796,0.37,1.147,0.541c0.35,0.168,0.637,0.351,0.834,0.581
				c0.058,0.067,0.061,0.222,0.108,0.299h-7.617c0.045-0.077,0.048-0.231,0.106-0.299c0.198-0.23,0.487-0.413,0.835-0.581
				c0.351-0.171,0.752-0.319,1.146-0.541c0.397-0.223,0.821-0.561,1.005-1.101c0.025-0.071,0.038-0.144,0.038-0.216v-1.172
				c0-0.242-0.131-0.467-0.343-0.586c0.068,0.037-0.016-0.01-0.081-0.077c-0.07-0.065-0.154-0.158-0.23-0.261
				c-0.154-0.205-0.25-0.452-0.25-0.563c0-0.262-0.154-0.5-0.392-0.611c-0.009-0.018-0.039-0.054-0.061-0.244
				c-0.002-0.027,0.002-0.019,0.006-0.027c0.173-0.174,0.237-0.425,0.17-0.658c-0.291-1.009-0.225-1.809,0.097-2.311
				C36.982,38.329,37.553,38.056,38.455,37.967L38.455,37.967z M31.034,47.14c-0.128,0-0.255,0.035-0.365,0.104l-3.118,1.897
				c-0.35-0.282-0.788-0.46-1.268-0.46c-1.113,0-2.032,0.912-2.032,2.022s0.918,2.022,2.032,2.022c1.114,0,2.03-0.912,2.03-2.022
				c0-0.144-0.016-0.284-0.044-0.419l3.105-1.891c0.262-0.153,0.389-0.463,0.309-0.754C31.605,47.345,31.339,47.142,31.034,47.14z
				 M45.885,47.142c-0.301,0.01-0.556,0.218-0.629,0.507c-0.076,0.29,0.052,0.595,0.308,0.745l3.108,1.891
				c-0.031,0.135-0.046,0.275-0.046,0.419c0,1.11,0.918,2.022,2.031,2.022c1.115,0,2.031-0.912,2.031-2.022
				s-0.916-2.022-2.031-2.022c-0.481,0-0.918,0.178-1.269,0.46l-3.116-1.897C46.157,47.172,46.022,47.137,45.885,47.142
				L45.885,47.142z M26.283,50.028c0.383,0,0.677,0.294,0.677,0.675s-0.294,0.675-0.677,0.675c-0.382,0-0.676-0.294-0.676-0.675
				S25.901,50.028,26.283,50.028z M50.657,50.028c0.382,0,0.677,0.294,0.677,0.675s-0.294,0.675-0.677,0.675
				s-0.678-0.294-0.678-0.675S50.275,50.028,50.657,50.028z M38.459,50.694c-0.374,0.006-0.671,0.313-0.667,0.684v3.498
				c-0.782,0.281-1.353,1.024-1.353,1.896c0,1.111,0.917,2.024,2.03,2.024s2.032-0.913,2.032-2.024c0-0.871-0.57-1.614-1.355-1.896
				v-3.498c0.004-0.184-0.068-0.357-0.197-0.487C38.818,50.763,38.643,50.692,38.459,50.694L38.459,50.694z M38.432,56.106
				c0.025,0.002,0.052,0.002,0.079,0c0.361,0.021,0.636,0.301,0.636,0.665c0,0.381-0.294,0.677-0.677,0.677
				c-0.381,0-0.677-0.296-0.677-0.677C37.793,56.406,38.069,56.127,38.432,56.106L38.432,56.106z"/>
		</g>
	</g>
</g>
</svg>
