<?xml version="1.0" encoding="utf-8"?>
<!-- Generator: Adobe Illustrator 16.0.0, SVG Export Plug-In . SVG Version: 6.00 Build 0)  -->
<!DOCTYPE svg PUBLIC "-//W3C//DTD SVG 1.1//EN" "http://www.w3.org/Graphics/SVG/1.1/DTD/svg11.dtd">
<svg version="1.1" id="Layer_1" xmlns="http://www.w3.org/2000/svg" xmlns:xlink="http://www.w3.org/1999/xlink" x="0px" y="0px"
	 width="280px" height="265px" viewBox="0 0 280 265" enable-background="new 0 0 280 265" xml:space="preserve">
<g>
	<path fill="#F2F2F2" d="M274.432,247.075c0,7.107-5.787,12.873-12.926,12.873H18.497c-7.141,0-12.928-5.766-12.928-12.873V17.925
		c0-7.111,5.787-12.873,12.928-12.873h243.009c7.139,0,12.926,5.762,12.926,12.873V247.075z"/>
	<g>
		<g>
			<path fill="#2ECC71" d="M207.582,226.604c0,2.023-1.643,3.662-3.674,3.662H76.093c-2.029,0-3.675-1.639-3.675-3.662v-32.083
				c0-2.021,1.646-3.661,3.675-3.661h127.815c2.031,0,3.674,1.64,3.674,3.661V226.604z"/>
		</g>
		<text transform="matrix(1.0041 0 0 1 88.3936 215.0781)" fill="#FFFFFF" font-family="'Roboto-Regular'" font-size="15.4483">Submit Review</text>
	</g>
	<g>
		<g opacity="0.6">
			<path fill="#FFFFFF" d="M252.82,91.53v70.702c0,2.021-1.643,3.668-3.672,3.668H30.853c-2.029,0-3.669-1.646-3.669-3.668V91.53
				c0-2.021,1.64-3.655,3.669-3.655h70.113c-0.465-2.421-0.712-4.931-0.712-7.493c0-21.858,17.797-39.586,39.748-39.586
				c21.948,0,39.747,17.728,39.747,39.586c0,2.563-0.244,5.072-0.709,7.493h70.109C251.178,87.875,252.82,89.509,252.82,91.53z"/>
		</g>
		<g>
			<g>
				<path fill="#FFFFFF" d="M167.877,146.72c-0.206,0-0.41-0.063-0.584-0.188c-0.309-0.222-0.465-0.6-0.402-0.976l1.024-6.175
					l-4.523-4.344c-0.275-0.265-0.376-0.661-0.261-1.024s0.427-0.629,0.804-0.687l6.22-0.938l2.75-5.63
					c0.167-0.341,0.513-0.559,0.893-0.561c0.002,0,0.004,0,0.006,0c0.378,0,0.724,0.213,0.894,0.551l2.813,5.6l6.228,0.868
					c0.378,0.053,0.692,0.315,0.812,0.677c0.12,0.362,0.023,0.76-0.249,1.027l-4.475,4.393l1.095,6.164
					c0.066,0.374-0.085,0.754-0.392,0.979c-0.175,0.13-0.384,0.195-0.593,0.195c-0.157,0-0.314-0.037-0.459-0.111l-5.582-2.883
					l-5.549,2.945C168.198,146.682,168.037,146.72,167.877,146.72z"/>
				<path fill="#F3CA24" d="M173.803,127.197l3.049,6.069l6.748,0.94l-4.852,4.762l1.188,6.684l-6.047-3.123l-6.012,3.19
					l1.111-6.695l-4.904-4.709l6.738-1.017L173.803,127.197 M173.803,125.197c-0.004,0-0.008,0-0.011,0
					c-0.761,0.004-1.453,0.439-1.786,1.122l-2.52,5.159l-5.701,0.86c-0.753,0.114-1.377,0.646-1.607,1.372
					c-0.23,0.726-0.028,1.521,0.521,2.048l4.144,3.979l-0.938,5.655c-0.125,0.75,0.188,1.506,0.805,1.95
					c0.347,0.25,0.757,0.377,1.168,0.377c0.321,0,0.644-0.077,0.938-0.233l5.087-2.699l5.116,2.643
					c0.289,0.149,0.604,0.223,0.918,0.223c0.419,0,0.836-0.132,1.187-0.39c0.612-0.451,0.916-1.211,0.782-1.96l-1.003-5.646
					l4.1-4.022c0.544-0.534,0.736-1.331,0.498-2.055c-0.239-0.724-0.868-1.249-1.623-1.354l-5.709-0.795l-2.577-5.131
					C175.25,125.624,174.559,125.197,173.803,125.197L173.803,125.197z"/>
			</g>
			<g>
				<path fill="#FFFFFF" d="M205.068,146.72c-0.206,0-0.41-0.063-0.584-0.188c-0.309-0.222-0.465-0.601-0.402-0.976l1.026-6.175
					l-4.525-4.344c-0.275-0.264-0.376-0.661-0.261-1.024s0.427-0.629,0.804-0.687l6.22-0.938l2.752-5.63
					c0.167-0.342,0.513-0.559,0.893-0.561c0.002,0,0.004,0,0.006,0c0.378,0,0.724,0.213,0.894,0.551l2.813,5.6l6.229,0.868
					c0.378,0.053,0.692,0.315,0.812,0.677c0.12,0.362,0.023,0.761-0.249,1.027l-4.477,4.393l1.095,6.164
					c0.066,0.374-0.085,0.754-0.392,0.979c-0.175,0.13-0.383,0.195-0.593,0.195c-0.157,0-0.314-0.037-0.459-0.111l-5.583-2.883
					l-5.55,2.945C205.39,146.681,205.229,146.72,205.068,146.72z"/>
				<path fill="#F3CA24" d="M210.996,127.197l3.049,6.069l6.75,0.94l-4.854,4.762l1.188,6.684l-6.049-3.123l-6.012,3.19l1.113-6.695
					l-4.906-4.709l6.738-1.017L210.996,127.197 M210.996,125.197c-0.004,0-0.007,0-0.011,0c-0.76,0.004-1.452,0.439-1.786,1.122
					l-2.521,5.159l-5.701,0.86c-0.753,0.114-1.377,0.646-1.607,1.372s-0.028,1.521,0.521,2.049l4.146,3.979l-0.94,5.654
					c-0.125,0.751,0.187,1.507,0.805,1.951c0.347,0.25,0.757,0.377,1.168,0.377c0.321,0,0.644-0.077,0.938-0.233l5.087-2.699
					l5.118,2.643c0.29,0.149,0.604,0.223,0.918,0.223c0.419,0,0.836-0.132,1.187-0.39c0.612-0.451,0.916-1.211,0.782-1.96
					l-1.003-5.646l4.101-4.022c0.544-0.534,0.737-1.33,0.499-2.055c-0.239-0.724-0.868-1.249-1.623-1.354l-5.711-0.795l-2.577-5.131
					C212.443,125.624,211.752,125.197,210.996,125.197L210.996,125.197z"/>
			</g>
			<g>
				<path fill="#FFFFFF" d="M130.684,146.72c-0.206,0-0.411-0.063-0.584-0.188c-0.309-0.223-0.464-0.601-0.402-0.976l1.027-6.175
					l-4.524-4.344c-0.275-0.264-0.376-0.661-0.261-1.024s0.427-0.629,0.804-0.687l6.216-0.938l2.755-5.63
					c0.167-0.341,0.513-0.559,0.893-0.561c0.002,0,0.004,0,0.005,0c0.378,0,0.724,0.213,0.894,0.551l2.813,5.6l6.229,0.868
					c0.378,0.053,0.692,0.314,0.812,0.677c0.12,0.362,0.023,0.76-0.249,1.027l-4.475,4.393l1.093,6.164
					c0.066,0.375-0.085,0.755-0.392,0.98c-0.175,0.129-0.384,0.194-0.593,0.194c-0.157,0-0.314-0.037-0.459-0.111l-5.58-2.883
					l-5.552,2.945C131.005,146.682,130.845,146.72,130.684,146.72z"/>
				<path fill="#F3CA24" d="M136.613,127.197l3.049,6.069l6.749,0.94l-4.852,4.762l1.186,6.684l-6.045-3.123l-6.015,3.19
					l1.114-6.695l-4.905-4.709l6.734-1.017L136.613,127.197 M136.613,125.197c-0.003,0-0.007,0-0.01,0
					c-0.76,0.004-1.452,0.438-1.786,1.121l-2.524,5.159l-5.697,0.86c-0.754,0.114-1.377,0.646-1.608,1.372
					c-0.23,0.727-0.028,1.521,0.521,2.048l4.145,3.979l-0.941,5.655c-0.125,0.75,0.187,1.507,0.804,1.951
					c0.347,0.25,0.757,0.377,1.168,0.377c0.321,0,0.643-0.077,0.937-0.233l5.09-2.699l5.115,2.643
					c0.289,0.149,0.604,0.223,0.918,0.223c0.419,0,0.836-0.132,1.186-0.39c0.613-0.451,0.917-1.211,0.784-1.96l-1.002-5.646
					l4.1-4.022c0.544-0.534,0.736-1.331,0.498-2.055c-0.239-0.724-0.868-1.249-1.623-1.354l-5.709-0.795l-2.578-5.131
					C138.061,125.624,137.369,125.197,136.613,125.197L136.613,125.197z"/>
			</g>
			<g>
				<path fill="#FFFFFF" d="M93.492,146.72c-0.206,0-0.411-0.063-0.584-0.188c-0.309-0.223-0.464-0.601-0.402-0.976l1.027-6.175
					l-4.526-4.344c-0.275-0.264-0.376-0.661-0.261-1.024s0.427-0.629,0.804-0.687l6.218-0.938l2.754-5.63
					c0.167-0.341,0.513-0.559,0.893-0.561c0.002,0,0.003,0,0.005,0c0.378,0,0.724,0.213,0.894,0.551l2.814,5.601l6.229,0.868
					c0.377,0.053,0.692,0.315,0.812,0.677c0.119,0.362,0.023,0.76-0.249,1.027l-4.476,4.393l1.094,6.164
					c0.066,0.375-0.085,0.755-0.392,0.98c-0.175,0.129-0.384,0.194-0.593,0.194c-0.157,0-0.314-0.037-0.459-0.111l-5.581-2.883
					l-5.552,2.945C93.813,146.682,93.653,146.72,93.492,146.72z"/>
				<path fill="#F3CA24" d="M99.42,127.197l3.05,6.069l6.748,0.94l-4.852,4.762l1.186,6.684l-6.046-3.123l-6.015,3.19l1.114-6.695
					l-4.906-4.709l6.736-1.017L99.42,127.197 M99.42,125.197c-0.003,0-0.007,0-0.011,0c-0.76,0.004-1.452,0.438-1.786,1.121
					l-2.524,5.159l-5.699,0.86c-0.754,0.114-1.377,0.646-1.608,1.372c-0.23,0.727-0.028,1.521,0.521,2.049l4.145,3.979l-0.94,5.654
					c-0.125,0.75,0.187,1.507,0.804,1.951c0.347,0.25,0.757,0.377,1.168,0.377c0.321,0,0.643-0.077,0.937-0.233l5.09-2.699
					l5.116,2.643c0.29,0.149,0.604,0.223,0.918,0.223c0.419,0,0.835-0.132,1.186-0.39c0.613-0.451,0.916-1.211,0.783-1.96
					l-1.002-5.646l4.099-4.022c0.544-0.534,0.737-1.331,0.499-2.055c-0.239-0.724-0.869-1.249-1.624-1.354l-5.708-0.795
					l-2.579-5.131C100.868,125.624,100.176,125.197,99.42,125.197L99.42,125.197z"/>
			</g>
			<g>
				<path fill="#FFFFFF" d="M56.3,146.72c-0.206,0-0.411-0.063-0.584-0.188c-0.309-0.222-0.465-0.601-0.402-0.976l1.025-6.175
					l-4.524-4.344c-0.275-0.265-0.376-0.661-0.261-1.024s0.427-0.629,0.804-0.687l6.22-0.938l2.75-5.63
					c0.167-0.341,0.513-0.559,0.893-0.561c0.002,0,0.004,0,0.006,0c0.378,0,0.724,0.213,0.894,0.551l2.815,5.601l6.229,0.868
					c0.377,0.053,0.692,0.315,0.812,0.677c0.119,0.362,0.022,0.761-0.25,1.027l-4.477,4.393l1.094,6.164
					c0.067,0.375-0.085,0.754-0.391,0.979c-0.175,0.13-0.384,0.195-0.593,0.195c-0.157,0-0.314-0.037-0.459-0.111l-5.581-2.883
					l-5.55,2.945C56.622,146.682,56.461,146.72,56.3,146.72z"/>
				<path fill="#F3CA24" d="M62.227,127.197l3.051,6.069l6.748,0.94l-4.854,4.762l1.187,6.684l-6.046-3.123l-6.013,3.19l1.112-6.695
					l-4.905-4.709l6.738-1.017L62.227,127.197 M62.227,125.197c-0.004,0-0.007,0-0.011,0c-0.76,0.004-1.452,0.439-1.786,1.122
					l-2.521,5.159l-5.7,0.86c-0.753,0.114-1.377,0.646-1.608,1.372c-0.23,0.727-0.029,1.521,0.521,2.048l4.145,3.979l-0.939,5.655
					c-0.125,0.75,0.188,1.506,0.805,1.95c0.347,0.25,0.756,0.377,1.168,0.377c0.321,0,0.643-0.077,0.938-0.233l5.088-2.699
					l5.115,2.643c0.29,0.149,0.604,0.223,0.918,0.223c0.419,0,0.835-0.132,1.186-0.39c0.613-0.451,0.916-1.211,0.783-1.96
					l-1.002-5.646l4.101-4.022c0.544-0.534,0.737-1.33,0.499-2.055c-0.239-0.724-0.869-1.249-1.624-1.354l-5.708-0.795l-2.58-5.132
					C63.674,125.623,62.982,125.197,62.227,125.197L62.227,125.197z"/>
			</g>
		</g>
		<text transform="matrix(1.0041 0 0 1 111.2871 95.3145)" fill="#3248E9" font-family="'Roboto-Bold'" font-size="7.7242">XYZ Corporation</text>
		<g>
			<path fill="#3248E9" d="M142.418,55.527c-0.085,0.008-0.16,0.035-0.234,0.075l-11.127,6.021
				c-0.199,0.106-0.325,0.314-0.329,0.541v1.981c0,0.339,0.278,0.616,0.62,0.616h1.237v2.597l1.233-0.674v-2.328l8.657-4.752
				l8.654,4.752v15.796h-4.943v1.231h5.563c0.342,0,0.617-0.276,0.617-0.616V64.763h1.236c0.342,0,0.617-0.277,0.617-0.616v-1.981
				c-0.002-0.227-0.125-0.435-0.326-0.541l-11.129-6.021C142.656,55.542,142.539,55.517,142.418,55.527L142.418,55.527z
				 M142.475,56.835l10.512,5.694v1.001h-0.795l-9.428-5.157c-0.18-0.095-0.397-0.095-0.58,0l-9.426,5.157h-0.793v-1.001
				L142.475,56.835z M136.234,66.608c-0.082,0.01-0.159,0.037-0.231,0.077l-9.892,5.406c-0.2,0.105-0.325,0.314-0.329,0.538v1.983
				c0,0.34,0.278,0.616,0.619,0.616h1.237v8.004c0,0.339,0.276,0.615,0.618,0.615h16.072c0.34,0,0.619-0.276,0.619-0.615v-8.004
				h1.238c0.338,0,0.617-0.276,0.617-0.616V72.63c-0.002-0.224-0.129-0.433-0.328-0.538l-9.892-5.406
				C136.477,66.626,136.355,66.598,136.234,66.608L136.234,66.608z M136.292,67.918l9.272,5.079v1.001h-0.791l-8.173-4.541
				c-0.19-0.111-0.427-0.111-0.62,0l-8.17,4.541h-0.792v-1.001L136.292,67.918z M136.292,70.706l7.417,4.119v7.792h-14.837v-7.792
				L136.292,70.706z"/>
		</g>
	</g>
</g>
</svg>
