<?xml version="1.0" encoding="utf-8"?>
<!-- Generator: Adobe Illustrator 16.0.0, SVG Export Plug-In . SVG Version: 6.00 Build 0)  -->
<!DOCTYPE svg PUBLIC "-//W3C//DTD SVG 1.1//EN" "http://www.w3.org/Graphics/SVG/1.1/DTD/svg11.dtd">
<svg version="1.1" id="Layer_1" xmlns="http://www.w3.org/2000/svg" xmlns:xlink="http://www.w3.org/1999/xlink" x="0px" y="0px"
	 width="280px" height="265px" viewBox="0 0 280 265" enable-background="new 0 0 280 265" xml:space="preserve">
<g>
	<path fill="#F2F2F2" d="M274.431,247.075c0,7.107-5.788,12.873-12.926,12.873H18.495c-7.139,0-12.926-5.766-12.926-12.873V17.925
		c0-7.111,5.787-12.873,12.926-12.873h243.01c7.138,0,12.926,5.762,12.926,12.873V247.075z"/>
	<g>
		<image overflow="visible" opacity="0.16" width="88" height="89" xlink:href="EF7FED39.png"  transform="matrix(1 0 0 1 96 88)">
		</image>
		<g>
			<path fill="#3248E9" d="M168.867,157.284c0,2.189-1.783,3.965-3.982,3.965h-49.771c-2.199,0-3.982-1.775-3.982-3.965v-49.568
				c0-2.19,1.783-3.967,3.982-3.967h49.771c2.199,0,3.982,1.776,3.982,3.967V157.284z"/>
		</g>
	</g>
	<g display="none">
		<g display="inline">
			<path fill="#F3CA24" d="M94.275,83.826c0,6.238-3.289,11.715-8.236,14.806c-0.105,0.064-0.211,0.121-0.316,0.186
				c-1.349,0.816-2.819,1.448-4.378,1.86c-0.277,0.082-0.561,0.153-0.837,0.211c-1.219,0.274-2.478,0.413-3.777,0.413
				c-2.234,0-4.371-0.413-6.328-1.183c-6.563-2.514-11.218-8.865-11.218-16.293c0-9.643,7.855-17.465,17.546-17.465
				c1.852,0,3.639,0.282,5.321,0.817c0.219,0.073,0.446,0.146,0.666,0.218C89.459,69.839,94.275,76.279,94.275,83.826z"/>
			<path opacity="0.11" d="M94.275,83.826c0,6.238-3.289,11.715-8.236,14.806c-0.105,0.064-0.211,0.121-0.316,0.186
				c-1.446,0.816-2.924,1.455-4.378,1.86c-0.277,0.082-0.561,0.153-0.837,0.211c-1.219,0.274-2.478,0.413-3.777,0.413
				c-2.234,0-4.371-0.413-6.328-1.183c4.362-4.779,9.098-9.989,9.837-12.368c4.744-15.314-0.926-16.358,1.812-20.572
				c0.219,0.073,0.446,0.146,0.666,0.218C89.459,69.839,94.275,76.279,94.275,83.826z"/>
		</g>
		<g display="inline">
			<path fill="#FE6B81" d="M157.545,83.826c0,9.653-7.854,17.476-17.545,17.476c-3.046,0-5.905-0.777-8.399-2.135
				c-5.45-2.962-9.147-8.723-9.147-15.341c0-9.643,7.855-17.465,17.546-17.465c3.444,0,6.652,0.986,9.365,2.7
				C154.28,72.153,157.545,77.613,157.545,83.826z"/>
			<path opacity="0.11" d="M157.545,83.826c0,9.653-7.854,17.476-17.545,17.476c-3.046,0-5.905-0.777-8.399-2.135
				c3.623-2.024,6.149-5.002,4.337-7.104c-2.664-3.101,5.589-14.53,13.427-23.002C154.28,72.153,157.545,77.613,157.545,83.826z"/>
		</g>
		<g display="inline">
			<path fill="#5ACAB7" d="M220.815,83.826c0,9.653-7.854,17.476-17.546,17.476c-8.285,0-15.238-5.72-17.066-13.422
				c-0.316-1.303-0.479-2.66-0.479-4.054c0-9.643,7.854-17.465,17.545-17.465c8.107,0,14.939,5.477,16.945,12.919
				C220.604,80.729,220.815,82.258,220.815,83.826z"/>
			<path opacity="0.11" d="M220.815,83.826c0,9.653-7.854,17.476-17.546,17.476c-8.285,0-15.238-5.72-17.066-13.422
				c9.772-0.081,27.146-1.317,34.012-8.6C220.604,80.729,220.815,82.258,220.815,83.826z"/>
		</g>
		<g display="inline">
			<path fill="#8571EA" d="M94.275,139.794c0,9.65-7.854,17.475-17.545,17.475c-5.84,0-11.015-2.841-14.2-7.216
				c-2.103-2.882-3.346-6.425-3.346-10.259c0-9.652,7.855-17.475,17.546-17.475c6.279,0,11.778,3.283,14.881,8.219
				C93.301,133.224,94.275,136.396,94.275,139.794z"/>
			<path opacity="0.11" d="M94.275,139.794c0,9.65-7.854,17.475-17.545,17.475c-5.84,0-11.015-2.841-14.2-7.216
				c12.177-7.38,22.371-19.084,29.081-19.515C93.301,133.224,94.275,136.396,94.275,139.794z"/>
		</g>
		<g display="inline">
			<path fill="#FFB97A" d="M157.545,139.794c0,9.65-7.854,17.475-17.545,17.475c-2.754,0-5.362-0.631-7.676-1.765
				c-5.848-2.831-9.87-8.801-9.87-15.71c0-9.652,7.855-17.475,17.546-17.475c6.791,0,12.68,3.842,15.588,9.466
				C156.84,134.18,157.545,136.905,157.545,139.794z"/>
			<path opacity="0.11" d="M157.545,139.794c0,9.65-7.854,17.475-17.545,17.475c-2.754,0-5.362-0.631-7.676-1.765
				c16.774-10.719-6.888-30.055,23.264-23.719C156.84,134.18,157.545,136.905,157.545,139.794z"/>
		</g>
		<g display="inline">
			<path fill="#38B4E0" d="M220.815,139.794c0,9.65-7.854,17.475-17.546,17.475c-5.23,0-9.926-2.283-13.135-5.898
				c-2.746-3.083-4.41-7.136-4.41-11.576c0-9.643,7.847-17.468,17.529-17.475c0.008,0,0.008,0,0.016,0
				C212.961,122.319,220.815,130.142,220.815,139.794z"/>
			<path opacity="0.11" d="M220.815,139.794c0,9.65-7.854,17.475-17.546,17.475c-5.23,0-9.926-2.283-13.135-5.898
				c2.022-3.94,6.141-8.534,13.135-13.598c11.316-8.189,7.117-12.904-0.016-15.453c0.008,0,0.008,0,0.016,0
				C212.961,122.319,220.815,130.142,220.815,139.794z"/>
		</g>
		<g display="inline">
			<path fill="#F7B9BA" d="M94.275,195.762c0,6.65-3.728,12.423-9.219,15.378c-2.477,1.328-5.313,2.086-8.326,2.086
				c-9.69,0-17.546-7.821-17.546-17.464c0-9.653,7.855-17.476,17.546-17.476h0.098C86.478,178.344,94.275,186.142,94.275,195.762z"
				/>
			<path opacity="0.11" d="M94.275,195.762c0,6.65-3.728,12.423-9.219,15.378c-0.479-9.877-5.361-24.813-8.228-32.854
				C86.478,178.344,94.275,186.142,94.275,195.762z"/>
		</g>
		<g display="inline">
			<path fill="#82D5F9" d="M157.545,195.762c0,9.643-7.854,17.464-17.545,17.464h-0.13c-9.634-0.072-17.416-7.862-17.416-17.464
				c0-9.653,7.855-17.476,17.546-17.476c1.494,0,2.949,0.184,4.338,0.541C151.934,180.745,157.545,187.597,157.545,195.762z"/>
			<path opacity="0.11" d="M157.545,195.762c0,9.643-7.854,17.464-17.545,17.464h-0.13c5.32-4.188,11.331-19.795,1.755-21.39
				c-10.041-1.667-0.886-10.678,2.713-13.009C151.934,180.745,157.545,187.597,157.545,195.762z"/>
		</g>
		<g display="inline">
			<path fill="#F3CA24" d="M220.815,195.762c0,2.328-0.454,4.546-1.291,6.574c-2.607,6.392-8.903,10.89-16.255,10.89
				c-9.691,0-17.545-7.821-17.545-17.464c0-7.144,4.305-13.294,10.479-15.994c2.16-0.956,4.549-1.481,7.066-1.481
				C212.961,178.286,220.815,186.108,220.815,195.762z"/>
			<path opacity="0.11" d="M220.815,195.762c0,2.328-0.454,4.546-1.291,6.574c-13.339,13.261-20.356-8.584-23.321-22.568
				c2.16-0.956,4.549-1.481,7.066-1.481C212.961,178.286,220.815,186.108,220.815,195.762z"/>
		</g>
	</g>
	<g>
		<g>
			<path fill="#3248E9" d="M208.047,198.564c-1.209,0-2.191,0.981-2.191,2.183v21.83c0,1.203,0.982,2.184,2.191,2.184h17.727
				l0.03-0.115l-1.634-1.34h-16.123c-0.402,0-0.73-0.326-0.73-0.729v-18.191h27.763v13.756l1.46,0.088v-17.482
				c0-1.201-0.982-2.183-2.191-2.183H208.047z M208.047,200.021h26.301c0.402,0,0.731,0.327,0.731,0.727v2.186h-27.763v-2.186
				C207.316,200.348,207.645,200.021,208.047,200.021z M208.777,200.747c-0.404,0-0.73,0.327-0.73,0.729s0.326,0.727,0.73,0.727
				s0.73-0.324,0.73-0.727S209.182,200.747,208.777,200.747z M210.969,200.747c-0.403,0-0.73,0.327-0.73,0.729
				s0.327,0.727,0.73,0.727c0.404,0,0.73-0.324,0.73-0.727S211.373,200.747,210.969,200.747z M213.161,200.747
				c-0.403,0-0.73,0.327-0.73,0.729s0.327,0.727,0.73,0.727s0.731-0.324,0.731-0.727S213.564,200.747,213.161,200.747z
				 M231.471,214.509c-0.291,0-0.584,0.219-0.73,0.361l-1.754,4.586l-4.893,0.291c-0.293,0-0.586,0.219-0.658,0.508
				c-0.073,0.293,0,0.656,0.291,0.803l3.727,3.055l-1.243,4.73c-0.073,0.293,0.073,0.656,0.293,0.803
				c0.146,0.072,0.292,0.143,0.438,0.143s0.294-0.07,0.439-0.143l4.09-2.619l4.092,2.689c0.22,0.219,0.584,0.146,0.805,0
				c0.291-0.217,0.364-0.508,0.291-0.799l-1.24-4.73l3.797-3.057c0.221-0.219,0.294-0.51,0.221-0.801
				c-0.073-0.293-0.366-0.508-0.658-0.508l-4.896-0.293l-1.752-4.582C232.056,214.728,231.764,214.509,231.471,214.509
				L231.471,214.509z M231.471,217.274l1.17,3.273c0.146,0.219,0.365,0.438,0.657,0.438l3.508,0.219l-2.704,2.182
				c-0.219,0.146-0.291,0.438-0.218,0.727l0.876,3.352l-2.922-1.895c-0.074-0.074-0.221-0.146-0.367-0.146
				c-0.146,0-0.291,0.072-0.438,0.072l-2.922,1.895l0.875-3.348c0.074-0.219,0.002-0.582-0.218-0.729l-2.704-2.184l3.508-0.145
				c0.293-0.074,0.512-0.219,0.658-0.512L231.471,217.274z"/>
		</g>
		<g>
			<path fill="#3248E9" d="M150.502,205.145c-3.494,0-17.533,0-21.059,0c-1.294,0.003-2.492,0.848-2.896,2.075
				c-0.229,0.696-2.177,7.057-2.992,9.662c-0.241,0.771-0.459,1.635-0.309,2.582c0.307,1.91,1.862,3.471,3.802,3.748
				c2.117,0.305,4.045-0.668,4.898-2.418c0.364-0.746,0.676-1.619,0.933-2.398c1.302,0,4.165,0,7.122,0c2.935,0,5.759,0,7.079,0
				c0.147,0.502,0.3,1.066,0.462,1.578h0.003c0.796,2.48,3.425,3.797,5.921,3.125c2.366-0.641,3.826-3.082,3.189-5.451
				c-0.375-1.393-2.5-8.135-3.148-10.257C153.106,206.083,151.89,205.145,150.502,205.145L150.502,205.145z M150.502,206.54
				c0.734,0,1.448,0.541,1.664,1.255c0.656,2.147,2.816,9.024,3.137,10.216c0.436,1.625-0.563,3.299-2.206,3.738
				c-1.827,0.494-3.649-0.418-4.222-2.199c-0.169-0.533-0.347-1.207-0.519-1.789c-0.056-0.178-0.168-0.408-0.389-0.568
				c-0.219-0.16-0.465-0.193-0.648-0.193c-1.244,0-4.284,0-7.319,0c-3.039,0-6.075,0.004-7.319,0c-0.202,0-0.473,0.047-0.692,0.219
				c-0.222,0.172-0.32,0.395-0.375,0.566v0.002c-0.251,0.783-0.587,1.701-0.927,2.396c-0.593,1.215-1.835,1.881-3.438,1.652
				c-1.296-0.189-2.415-1.307-2.62-2.588c-0.099-0.611,0.039-1.236,0.263-1.951c0.818-2.617,2.82-9.139,2.987-9.642
				c0.175-0.53,0.987-1.114,1.564-1.114C132.969,206.54,147.008,206.54,150.502,206.54z M130.898,207.934v1.396h-1.4v1.396h1.4
				v1.395h1.401v-1.395h1.4v-1.396h-1.4v-1.396H130.898z M148.39,207.934c-0.375,0.007-0.687,0.324-0.687,0.698
				c0,0.391,0.322,0.702,0.713,0.697c0.377-0.008,0.688-0.322,0.688-0.699C149.104,208.242,148.783,207.929,148.39,207.934z
				 M149.78,209.329c-0.374,0.005-0.683,0.321-0.677,0.704c0.004,0.38,0.32,0.696,0.688,0.692c0.404-0.006,0.715-0.318,0.711-0.708
				C150.5,209.631,150.178,209.324,149.78,209.329z M147,209.329c-0.383,0.002-0.695,0.312-0.699,0.688
				c-0.002,0.394,0.308,0.7,0.715,0.708c0.389,0.006,0.681-0.289,0.688-0.69C147.707,209.638,147.398,209.329,147,209.329z
				 M148.395,210.726c-0.375,0.004-0.689,0.32-0.691,0.693c-0.003,0.387,0.316,0.707,0.708,0.701
				c0.374-0.008,0.688-0.318,0.692-0.693C149.105,211.036,148.783,210.72,148.395,210.726z M136.53,211.421
				c-1.163-0.016-2.131,0.934-2.131,2.092c-0.002,1.15,0.949,2.096,2.104,2.092c1.146-0.006,2.095-0.941,2.098-2.078
				C138.603,212.388,137.673,211.438,136.53,211.421z M143.49,211.421c-1.144,0.006-2.084,0.945-2.089,2.084
				c-0.007,1.152,0.951,2.102,2.108,2.1c1.154-0.002,2.095-0.953,2.093-2.102C145.6,212.356,144.645,211.417,143.49,211.421z
				 M136.51,212.817c0.418,0.004,0.689,0.279,0.689,0.703c0,0.408-0.279,0.686-0.7,0.691c-0.361,0-0.701-0.34-0.701-0.699
				C135.799,213.136,136.13,212.812,136.51,212.817L136.51,212.817z M143.499,212.817c0.374-0.004,0.702,0.32,0.702,0.691
				c0,0.365-0.334,0.703-0.694,0.703c-0.417,0-0.708-0.289-0.706-0.699C142.804,213.097,143.083,212.819,143.499,212.817z"/>
		</g>
		<g>
			<path fill="#3248E9" d="M57.341,197.474c-9.272,0-16.804,7.5-16.804,16.734c0,9.236,7.532,16.738,16.804,16.738
				c9.273,0,16.804-7.502,16.804-16.738C74.145,204.974,66.614,197.474,57.341,197.474L57.341,197.474z M56.61,199.002v7.182
				c-2.063-0.048-4.023-0.302-5.793-0.725C52.15,201.909,54.247,199.43,56.61,199.002z M58.072,199.002
				c2.363,0.428,4.46,2.907,5.792,6.457c-1.768,0.423-3.73,0.677-5.792,0.725V199.002z M52.569,199.687
				c-1.307,1.313-2.406,3.15-3.216,5.37c-1.179-0.367-2.243-0.807-3.182-1.308C47.912,201.904,50.095,200.491,52.569,199.687
				L52.569,199.687z M62.113,199.687c2.474,0.805,4.657,2.218,6.396,4.063c-0.937,0.501-2.001,0.94-3.18,1.308
				C64.519,202.837,63.42,200.999,62.113,199.687z M45.207,204.876c1.092,0.613,2.326,1.144,3.689,1.568
				c-0.245,0.851-0.456,1.74-0.619,2.671h1.515c0.152-0.784,0.34-1.539,0.554-2.266c1.924,0.47,4.038,0.739,6.265,0.79v1.476h1.461
				v-1.476c2.226-0.051,4.344-0.317,6.264-0.785c0.214,0.722,0.403,1.477,0.554,2.261h1.515c-0.162-0.928-0.374-1.818-0.619-2.668
				c1.365-0.428,2.597-0.958,3.69-1.571c1.867,2.401,3.037,5.365,3.188,8.607H69.03v1.455h3.634
				c-0.151,3.238-1.322,6.203-3.188,8.605c-1.093-0.615-2.325-1.146-3.69-1.568c0.245-0.85,0.457-1.74,0.619-2.672H64.89
				c-0.151,0.783-0.34,1.541-0.554,2.264c-1.922-0.469-4.038-0.738-6.264-0.785v-1.479H56.61v1.479
				c-2.227,0.047-4.344,0.313-6.265,0.783c-0.214-0.721-0.402-1.479-0.554-2.262h-1.515c0.163,0.93,0.374,1.816,0.619,2.666
				c-1.364,0.428-2.597,0.959-3.689,1.574c-1.867-2.402-3.037-5.367-3.191-8.605h3.636v-1.455h-3.636
				C42.169,210.241,43.34,207.277,45.207,204.876L45.207,204.876z M64.841,210.571c-0.406,0-0.776,0.049-1.113,0.146
				c-0.337,0.092-0.625,0.227-0.873,0.398c-0.243,0.172-0.435,0.381-0.568,0.627c-0.134,0.244-0.206,0.516-0.206,0.807
				c0,0.311,0.069,0.582,0.203,0.811c0.131,0.232,0.311,0.436,0.537,0.611c0.222,0.176,0.485,0.33,0.781,0.461
				c0.297,0.129,0.608,0.246,0.934,0.344c0.276,0.094,0.494,0.176,0.659,0.26c0.166,0.08,0.294,0.164,0.385,0.252
				c0.088,0.084,0.146,0.176,0.174,0.273s0.042,0.207,0.042,0.33c0,0.113-0.02,0.221-0.049,0.316
				c-0.03,0.096-0.085,0.182-0.156,0.254c-0.077,0.068-0.172,0.121-0.288,0.16c-0.118,0.043-0.26,0.063-0.428,0.063
				c-0.206,0-0.389-0.02-0.543-0.063c-0.154-0.039-0.288-0.105-0.394-0.195c-0.102-0.094-0.183-0.217-0.233-0.365
				c-0.052-0.145-0.077-0.328-0.077-0.545h-1.764c0,0.404,0.089,0.752,0.26,1.043c0.174,0.289,0.402,0.533,0.686,0.723
				c0.283,0.193,0.604,0.334,0.964,0.426c0.36,0.094,0.728,0.139,1.103,0.139c0.413,0,0.787-0.045,1.118-0.133
				c0.328-0.088,0.611-0.219,0.844-0.387c0.231-0.164,0.408-0.371,0.537-0.613c0.122-0.242,0.186-0.52,0.186-0.83
				c0-0.293-0.048-0.553-0.147-0.787c-0.101-0.232-0.251-0.438-0.455-0.627c-0.202-0.184-0.457-0.35-0.758-0.494
				c-0.301-0.145-0.657-0.277-1.062-0.398c-0.194-0.066-0.375-0.135-0.537-0.207c-0.16-0.072-0.298-0.148-0.411-0.229
				c-0.111-0.084-0.2-0.17-0.263-0.262c-0.063-0.096-0.091-0.199-0.091-0.32c0-0.109,0.016-0.219,0.057-0.316
				c0.043-0.104,0.102-0.191,0.183-0.262c0.077-0.074,0.179-0.131,0.299-0.174c0.122-0.041,0.265-0.064,0.434-0.064
				c0.179,0,0.331,0.025,0.459,0.076c0.127,0.049,0.231,0.119,0.313,0.207c0.083,0.092,0.143,0.197,0.18,0.322
				c0.037,0.123,0.057,0.264,0.057,0.412h1.749c0-0.32-0.063-0.617-0.191-0.883c-0.128-0.268-0.308-0.5-0.548-0.693
				c-0.233-0.188-0.519-0.34-0.858-0.449C65.634,210.626,65.261,210.571,64.841,210.571L64.841,210.571z M47.112,210.673v7.076
				h2.283c0.508,0,0.971-0.068,1.384-0.199c0.414-0.135,0.769-0.326,1.062-0.582c0.298-0.254,0.523-0.566,0.683-0.936
				c0.16-0.371,0.24-0.795,0.24-1.268v-1.102c0-0.477-0.083-0.896-0.242-1.27c-0.163-0.371-0.388-0.686-0.683-0.938
				c-0.291-0.256-0.642-0.453-1.056-0.586c-0.411-0.133-0.871-0.197-1.373-0.197H47.112z M54.419,210.673v7.076h1.689v-4.641
				l2.466,4.641h1.689v-7.076h-1.682v4.645l-2.474-4.645H54.419z M48.871,211.858h0.542c0.303,0,0.557,0.035,0.763,0.102
				c0.205,0.066,0.368,0.172,0.491,0.314c0.125,0.143,0.214,0.326,0.263,0.555c0.051,0.227,0.077,0.504,0.077,0.826v1.109
				c0,0.318-0.026,0.594-0.077,0.82c-0.049,0.229-0.138,0.414-0.263,0.561c-0.123,0.145-0.289,0.254-0.494,0.318
				c-0.208,0.066-0.468,0.098-0.776,0.098h-0.525V211.858z M56.61,222.237v7.182c-2.363-0.428-4.46-2.908-5.793-6.457
				C52.587,222.536,54.547,222.284,56.61,222.237L56.61,222.237z M58.072,222.237c2.063,0.047,4.024,0.299,5.792,0.725
				c-1.333,3.549-3.429,6.029-5.792,6.457V222.237z M49.353,223.36c0.81,2.221,1.91,4.063,3.216,5.375
				c-2.475-0.805-4.658-2.221-6.398-4.066C47.11,224.169,48.174,223.728,49.353,223.36L49.353,223.36z M65.329,223.36
				c1.179,0.367,2.243,0.809,3.18,1.309c-1.739,1.846-3.922,3.262-6.396,4.066C63.42,227.423,64.519,225.581,65.329,223.36
				L65.329,223.36z"/>
		</g>
		<g>
			<path fill="#3248E9" d="M210.057,112.835c-1.383,0-2.521,1.134-2.521,2.509v2.356c-0.079,0.201-0.418,1.066-0.8,2.258
				c-0.431,1.34-0.88,2.909-0.88,4.174c0,1.154,0.223,2.258,0.837,3.138c0.225,0.324,0.511,0.604,0.843,0.832v19.042
				c0,1.383,1.132,2.509,2.521,2.509h10.082l0.008-0.193l0.113-1.479h-10.203c-0.464,0-0.841-0.377-0.841-0.837v-2.512h11.304
				l0.13-1.673h-11.434v-14.248c0.138,0.015,0.277,0.022,0.42,0.022c1.122,0,2.145-0.413,2.941-1.076
				c0.797,0.663,1.819,1.076,2.939,1.076c1.122,0,2.146-0.413,2.942-1.076c0.796,0.663,1.818,1.076,2.94,1.076
				c1.121,0,2.142-0.413,2.938-1.076c0.797,0.666,1.82,1.076,2.942,1.076c0.143,0,0.283-0.008,0.421-0.022v3.396
				c0.508-0.327,1.075-0.568,1.68-0.712v-3.294c0.332-0.229,0.619-0.508,0.844-0.832c0.613-0.88,0.837-1.983,0.837-3.138
				c0-1.265-0.45-2.834-0.88-4.174c-0.385-1.194-0.725-2.062-0.802-2.261c0-0.013,0.001-0.024,0.001-0.037v-2.316
				c0-1.375-1.139-2.509-2.521-2.509H210.057z M210.057,114.509h16.804c0.466,0,0.841,0.373,0.841,0.835v1.675h-3.221
				c-0.091-0.015-0.184-0.015-0.273,0h-5.619c-0.048-0.008-0.094-0.013-0.143-0.013c-0.041,0.003-0.082,0.005-0.122,0.013h-9.107
				v-1.675C209.216,114.882,209.59,114.509,210.057,114.509z M208.969,118.693h2.768v7.439c-0.536,0.563-1.264,0.929-2.101,0.929
				c-0.816,0-1.228-0.265-1.562-0.745c-0.336-0.482-0.539-1.259-0.539-2.185c0-0.814,0.392-2.384,0.803-3.663
				C208.652,119.482,208.842,119.022,208.969,118.693z M213.416,118.693h4.201v7.439c-0.537,0.563-1.264,0.929-2.101,0.929
				c-0.835,0-1.563-0.365-2.101-0.929V118.693z M219.299,118.693h4.201v7.404c-0.539,0.573-1.258,0.964-2.101,0.964
				c-0.845,0-1.563-0.391-2.101-0.964V118.693z M225.18,118.693h2.768c0.127,0.329,0.316,0.789,0.633,1.775
				c0.409,1.279,0.801,2.849,0.801,3.663c0,0.926-0.203,1.702-0.539,2.185c-0.334,0.48-0.744,0.745-1.562,0.745
				c-0.837,0-1.563-0.365-2.101-0.929V118.693z M230.641,132.917c-2.078,0-3.78,1.697-3.78,3.767v1.255h-4.14l-0.058,0.771
				l-0.845,10.91v0.032c0,1.378,1.139,2.513,2.521,2.513h12.603c1.382,0,2.521-1.135,2.521-2.513v-0.032l-0.902-11.682h-4.14v-1.255
				C234.421,134.614,232.72,132.917,230.641,132.917L230.641,132.917z M230.641,134.592c1.17,0,2.101,0.925,2.101,2.092v1.255h-4.2
				v-1.255C228.541,135.517,229.471,134.592,230.641,134.592z M224.277,139.612h12.729l0.775,10.043
				c-0.002,0.473-0.365,0.835-0.839,0.835H224.34c-0.474,0-0.838-0.362-0.838-0.835L224.277,139.612z M215.938,145.469
				c-0.465,0-0.84,0.375-0.84,0.837c0,0.463,0.375,0.838,0.84,0.838h4.388l0.13-1.675H215.938z"/>
		</g>
		<g>
			<path fill="#FFFFFF" d="M140,114.17c-1.316,0-2.4,1.08-2.4,2.392c0,1.03,0.674,1.908,1.6,2.241v3.335
				c-0.004,0.289,0.148,0.556,0.397,0.702c0.249,0.143,0.557,0.143,0.806,0c0.249-0.146,0.401-0.413,0.397-0.702v-3.335
				c0.926-0.333,1.6-1.211,1.6-2.241C142.4,115.25,141.316,114.17,140,114.17z M140,115.764c0.452,0,0.801,0.348,0.801,0.798
				c0,0.432-0.327,0.764-0.755,0.786c-0.02,0-0.039-0.001-0.058-0.001c-0.012,0.001-0.023,0.001-0.035,0.001
				c-0.427-0.023-0.753-0.354-0.753-0.786C139.2,116.111,139.549,115.764,140,115.764z M125.597,121.344
				c-1.317,0-2.401,1.078-2.401,2.389c0,1.313,1.084,2.391,2.401,2.391c0.569,0,1.089-0.209,1.503-0.546l6.087,3.621
				c0.38,0.227,0.873,0.104,1.099-0.274c0.227-0.379,0.103-0.867-0.276-1.094l-6.064-3.607c0.034-0.159,0.052-0.322,0.052-0.49
				C127.998,122.422,126.913,121.344,125.597,121.344z M154.403,121.344c-1.315,0-2.399,1.078-2.399,2.389
				c0,0.168,0.018,0.331,0.05,0.49l-6.063,3.607c-0.38,0.227-0.504,0.715-0.278,1.094c0.228,0.378,0.72,0.501,1.1,0.274l6.087-3.621
				c0.414,0.337,0.935,0.546,1.504,0.546c1.316,0,2.4-1.078,2.4-2.391C156.804,122.422,155.72,121.344,154.403,121.344z
				 M125.597,122.935c0.451,0,0.8,0.35,0.8,0.798c0,0.449-0.349,0.797-0.8,0.797c-0.452,0-0.8-0.348-0.8-0.797
				C124.797,123.284,125.146,122.935,125.597,122.935z M154.403,122.935c0.451,0,0.8,0.35,0.8,0.798c0,0.449-0.349,0.797-0.8,0.797
				c-0.45,0-0.801-0.348-0.801-0.797C153.603,123.284,153.953,122.935,154.403,122.935z M140.509,124.529
				c-1.826,0-3.218,0.634-3.938,1.76c-0.648,1.016-0.658,2.291-0.358,3.601c-0.152,0.267-0.248,0.581-0.204,0.973
				c0.05,0.453,0.163,0.815,0.375,1.106c0.078,0.108,0.218,0.116,0.324,0.194c0.108,0.425,0.221,0.862,0.433,1.146
				c0.148,0.201,0.3,0.369,0.441,0.505c0.005,0.005,0.012,0.008,0.019,0.013v0.792c-0.054,0.121-0.142,0.231-0.421,0.39
				c-0.307,0.174-0.768,0.35-1.267,0.594c-0.5,0.241-1.05,0.558-1.5,1.081c-0.45,0.525-0.761,1.255-0.811,2.147
				c-0.012,0.219,0.067,0.433,0.218,0.591c0.15,0.158,0.36,0.249,0.58,0.249h11.202c0.22,0,0.431-0.091,0.581-0.249
				c0.151-0.158,0.23-0.372,0.219-0.591c-0.049-0.893-0.361-1.622-0.813-2.147c-0.449-0.523-1-0.84-1.499-1.081
				c-0.5-0.244-0.96-0.423-1.268-0.596c-0.278-0.156-0.368-0.267-0.421-0.388v-0.8c0.008-0.007,0.018-0.012,0.025-0.02
				c0.138-0.141,0.288-0.31,0.432-0.508c0.206-0.282,0.313-0.707,0.422-1.117c0.105-0.077,0.245-0.085,0.324-0.193
				c0.211-0.291,0.326-0.653,0.375-1.106c0.034-0.304,0.007-0.588-0.1-0.852c-0.014-0.036-0.077-0.056-0.094-0.091
				c0.224-0.913,0.296-1.886-0.058-2.778c-0.339-0.853-1.212-1.436-2.302-1.649l-0.165-0.45
				C141.146,124.74,140.846,124.529,140.509,124.529L140.509,124.529z M139.981,126.214l0.067,0.184
				c0.115,0.314,0.416,0.522,0.752,0.522c0.954,0,1.23,0.3,1.438,0.82s0.184,1.37-0.053,2.135c-0.089,0.284-0.01,0.593,0.204,0.802
				c0,0.015,0.001,0-0.001,0.022c-0.025,0.227-0.06,0.271-0.07,0.289c-0.282,0.131-0.464,0.413-0.465,0.725
				c0,0.096-0.109,0.395-0.291,0.646c-0.091,0.124-0.191,0.239-0.271,0.317c-0.08,0.08-0.182,0.141-0.088,0.088
				c-0.249,0.141-0.402,0.405-0.402,0.691v1.383c0,0.088,0.015,0.174,0.044,0.257c0.218,0.639,0.721,1.038,1.188,1.3
				c0.466,0.264,0.94,0.438,1.354,0.639s0.754,0.417,0.986,0.688c0.069,0.081,0.072,0.26,0.129,0.354h-9.003
				c0.055-0.095,0.059-0.273,0.128-0.354c0.232-0.271,0.572-0.487,0.986-0.687c0.414-0.201,0.889-0.377,1.355-0.641
				c0.467-0.262,0.969-0.661,1.188-1.3c0.028-0.083,0.043-0.169,0.043-0.257v-1.383c0-0.286-0.155-0.551-0.406-0.694
				c0.081,0.046-0.017-0.012-0.097-0.088c-0.081-0.078-0.18-0.188-0.271-0.312c-0.181-0.241-0.293-0.53-0.293-0.661
				c0-0.312-0.182-0.594-0.463-0.725c-0.011-0.02-0.046-0.063-0.071-0.289c-0.003-0.03,0.003-0.02,0.007-0.03
				c0.204-0.206,0.28-0.503,0.201-0.779c-0.343-1.191-0.264-2.137,0.116-2.733C138.242,126.642,138.917,126.319,139.981,126.214
				L139.981,126.214z M131.212,137.053c-0.152,0-0.302,0.043-0.431,0.124l-3.685,2.24c-0.413-0.332-0.931-0.543-1.499-0.543
				c-1.317,0-2.401,1.081-2.401,2.391c0,1.313,1.084,2.392,2.401,2.392c1.316,0,2.4-1.079,2.4-2.392
				c0-0.168-0.019-0.334-0.053-0.495l3.669-2.232c0.31-0.182,0.459-0.549,0.366-0.894
				C131.886,137.297,131.572,137.056,131.212,137.053z M148.764,137.056c-0.355,0.013-0.658,0.257-0.745,0.599
				c-0.089,0.345,0.062,0.701,0.366,0.883l3.672,2.232c-0.035,0.161-0.053,0.327-0.053,0.495c0,1.313,1.084,2.392,2.399,2.392
				c1.316,0,2.4-1.079,2.4-2.392c0-1.31-1.084-2.391-2.4-2.391c-0.568,0-1.086,0.211-1.499,0.543l-3.685-2.24
				C149.084,137.091,148.924,137.048,148.764,137.056L148.764,137.056z M125.597,140.468c0.451,0,0.8,0.347,0.8,0.797
				s-0.349,0.797-0.8,0.797c-0.452,0-0.8-0.347-0.8-0.797S125.146,140.468,125.597,140.468z M154.403,140.468
				c0.451,0,0.8,0.347,0.8,0.797s-0.349,0.797-0.8,0.797c-0.45,0-0.801-0.347-0.801-0.797S153.953,140.468,154.403,140.468z
				 M139.988,141.255c-0.441,0.008-0.794,0.367-0.788,0.807v4.134c-0.926,0.335-1.6,1.212-1.6,2.243c0,1.31,1.084,2.391,2.4,2.391
				s2.4-1.081,2.4-2.391c0-1.031-0.674-1.908-1.6-2.243v-4.134c0.002-0.214-0.083-0.422-0.235-0.575
				C140.412,141.335,140.204,141.252,139.988,141.255L139.988,141.255z M139.954,147.651c0.032,0,0.063,0,0.092,0
				c0.428,0.022,0.754,0.354,0.754,0.787c0,0.45-0.349,0.797-0.801,0.797c-0.451,0-0.8-0.347-0.8-0.797
				C139.2,148.003,139.527,147.674,139.954,147.651L139.954,147.651z"/>
		</g>
		<g>
			<path fill="#3248E9" d="M59.334,115.561c-0.326,0-0.62,0.196-0.743,0.498c-0.122,0.299-0.049,0.644,0.185,0.869
				c3.455,3.442,3.455,8.979,0,12.421c-0.21,0.199-0.294,0.498-0.221,0.777c0.073,0.279,0.293,0.495,0.573,0.568
				s0.578-0.01,0.779-0.219c4.066-4.048,4.066-10.625,0-14.674C59.757,115.647,59.55,115.561,59.334,115.561z M57.092,117.791
				c-0.326,0-0.62,0.195-0.743,0.497c-0.123,0.302-0.05,0.646,0.185,0.873c2.17,2.159,2.17,5.715,0,7.877
				c-0.208,0.199-0.292,0.496-0.22,0.774c0.073,0.279,0.292,0.498,0.573,0.571c0.28,0.072,0.578-0.01,0.779-0.219
				c2.791-2.781,2.791-7.353,0-10.131C57.516,117.879,57.309,117.791,57.092,117.791z M54.771,120.102
				c-0.325,0.002-0.618,0.198-0.739,0.497c-0.123,0.302-0.05,0.645,0.183,0.87c0.985,0.983,0.985,2.437,0,3.417
				c-0.209,0.201-0.293,0.498-0.22,0.777c0.073,0.279,0.292,0.498,0.573,0.57c0.28,0.073,0.578-0.012,0.779-0.221
				c1.576-1.566,1.576-4.102,0-5.67C55.195,120.189,54.988,120.102,54.771,120.102z M45.326,122.331
				c-0.441,0.006-0.793,0.367-0.788,0.808v16.735h-1.6c-1.317,0-2.401,1.079-2.401,2.392v4.782c0,1.31,1.084,2.391,2.401,2.391
				h28.806c1.316,0,2.401-1.081,2.401-2.391v-4.782c0-1.313-1.084-2.392-2.401-2.392H52.54v-16.735
				c0.003-0.216-0.082-0.423-0.235-0.576c-0.153-0.15-0.361-0.236-0.578-0.231c-0.441,0.006-0.793,0.367-0.787,0.808v16.735h-4.801
				v-16.735c0.002-0.216-0.082-0.423-0.235-0.576C45.75,122.412,45.542,122.326,45.326,122.331L45.326,122.331z M42.938,141.469
				h2.266c0.087,0.015,0.175,0.015,0.261,0h6.14c0.086,0.015,0.175,0.015,0.262,0h19.877c0.444,0,0.8,0.354,0.8,0.797v4.782
				c0,0.439-0.355,0.797-0.8,0.797H42.938c-0.444,0-0.8-0.357-0.8-0.797v-4.782C42.138,141.823,42.494,141.469,42.938,141.469z
				 M45.338,143.859c-0.48,0-0.8,0.319-0.8,0.797c0,0.479,0.32,0.798,0.8,0.798c0.48,0,0.8-0.319,0.8-0.798
				C46.139,144.179,45.818,143.859,45.338,143.859z M48.539,143.859c-0.48,0-0.801,0.319-0.801,0.797
				c0,0.479,0.321,0.798,0.801,0.798s0.8-0.319,0.8-0.798C49.339,144.179,49.019,143.859,48.539,143.859z M51.739,143.859
				c-0.479,0-0.799,0.319-0.799,0.797c0,0.479,0.32,0.798,0.799,0.798c0.48,0,0.8-0.319,0.8-0.798
				C52.54,144.179,52.22,143.859,51.739,143.859z M54.94,143.859c-0.48,0-0.8,0.319-0.8,0.797c0,0.479,0.32,0.798,0.8,0.798
				s0.8-0.319,0.8-0.798C55.741,144.179,55.42,143.859,54.94,143.859z M58.142,143.859c-0.48,0-0.801,0.319-0.801,0.797
				c0,0.479,0.32,0.798,0.801,0.798c0.479,0,0.8-0.319,0.8-0.798C58.941,144.179,58.621,143.859,58.142,143.859z"/>
		</g>
		<g>
			<path fill="#3248E9" d="M212.315,34.054l-0.493,0.471l-5.495,5.472l-0.472,0.493l0.472,0.49l10.73,10.686l-8.605,8.571
				c-0.089,0.081-0.155,0.184-0.193,0.3l-1.374,5.129c-0.062,0.236,0.009,0.485,0.18,0.656c0.173,0.171,0.422,0.239,0.658,0.179
				l5.15-1.368c0.115-0.037,0.22-0.105,0.301-0.193l23.735-23.638c-0.003,0.003,0.558-0.556,0.558-0.556
				c1.307-1.303,1.305-3.404,0-4.705c-1.307-1.299-3.414-1.297-4.721,0l-9.207,9.17l-10.73-10.686L212.315,34.054z M212.315,35.998
				l1.116,1.111l-0.881,0.878l0.988,0.982l0.879-0.877l1.073,1.07l-1.567,1.56l0.988,0.983l1.566-1.56l1.072,1.069l-0.879,0.875
				l0.986,0.982l0.881-0.875l1.073,1.068l-1.566,1.56l0.987,0.983l1.566-1.56l1.072,1.069l-0.88,0.875l0.88,0.877l-3.626,3.611
				l-10.237-10.193L212.315,35.998z M233.154,37.56l2.789,2.778L212.337,63.85l-2.79-2.778L233.154,37.56z M228.84,50.511
				l-0.494,0.471l-1.373,1.367l0.987,0.983l0.88-0.875l1.072,1.069l-1.566,1.559l0.987,0.982l1.566-1.559l1.074,1.068l-0.88,0.875
				l0.987,0.983l0.88-0.875l1.072,1.068l-1.566,1.562l0.987,0.983l1.566-1.562l1.073,1.068l-0.88,0.878l0.987,0.983l0.88-0.878
				l0.429,0.428l-4.506,4.487l-9.658-9.597l-0.966,0.963l10.13,10.11l0.494,0.47l0.494-0.47l5.493-5.472l0.472-0.492l-0.472-0.49
				L228.84,50.511z"/>
		</g>
		<g>
			<path fill="#3248E9" d="M153.443,34.724c-0.744,0-1.345,0.598-1.345,1.34c0,0.195,0.05,0.375,0.125,0.543l-5.376,7.488
				c-0.043-0.003-0.085,0-0.127,0c-0.268,0-0.525,0.075-0.735,0.211l-4.642-2.303c-0.044-0.699-0.63-1.256-1.344-1.256
				c-0.743,0-1.344,0.6-1.344,1.341c0,0.07,0.011,0.141,0.021,0.208l-4.915,3.891c-0.149-0.056-0.313-0.083-0.483-0.083
				c-0.672,0-1.223,0.49-1.323,1.129l-4.579,1.843c-0.229-0.179-0.509-0.294-0.82-0.294c-0.743,0-1.344,0.599-1.344,1.34
				c0,0.739,0.602,1.338,1.344,1.338c0.678,0,1.232-0.498,1.323-1.149l4.579-1.82c0.229,0.176,0.51,0.292,0.819,0.292
				c0.743,0,1.344-0.599,1.344-1.338c0-0.07-0.01-0.141-0.021-0.211l4.915-3.89c0.15,0.058,0.313,0.082,0.483,0.082
				c0.268,0,0.525-0.072,0.734-0.208l4.643,2.301c0.044,0.701,0.63,1.255,1.344,1.255c0.742,0,1.345-0.599,1.345-1.338
				c0-0.196-0.051-0.377-0.126-0.543l5.377-7.49c0.042,0.002,0.084,0,0.127,0c0.742,0,1.344-0.599,1.344-1.338
				C154.787,35.321,154.186,34.724,153.443,34.724L153.443,34.724z M150.754,43.425v23.432h5.378V43.425H150.754z M152.099,44.766
				h2.688v20.751h-2.688V44.766z M137.311,49.45v17.406h5.376V49.45H137.311z M138.655,50.79h2.688v14.727h-2.688V50.79z
				 M144.032,52.799v14.058h5.378V52.799H144.032z M145.377,54.137h2.688v11.38h-2.688V54.137z M130.589,54.806v12.051h5.377V54.806
				H130.589z M131.934,56.146h2.688v9.371h-2.688V56.146z M123.868,57.483v9.373h5.378v-9.373H123.868z M125.212,58.823h2.688v6.693
				h-2.688V58.823z"/>
		</g>
		<g>
			<path fill="#3248E9" d="M60.024,39.407c-3.405,0-6.293,1.791-7.733,4.73c-0.739-0.466-1.63-0.713-2.585-0.713
				c-2.445,0-4.312,1.854-4.462,4.36c-2.998,1.009-4.706,3.38-4.706,6.573c0,3.567,2.915,6.474,6.5,6.474h0.893v-1.34h-0.893
				c-2.843,0-5.156-2.306-5.156-5.134c0-3.722,2.639-4.999,4.211-5.434l0.512-0.139l-0.027-0.674c0-1.908,1.345-3.347,3.128-3.347
				c0.948,0,1.792,0.324,2.381,0.913l0.743,0.738l0.365-0.98c1.073-2.894,3.691-4.689,6.83-4.689c4.15,0,7.4,3.234,7.4,7.365
				c0,0.276-0.021,0.57-0.065,0.923l-0.053,0.751h0.759c2.478,0,4.736,2.425,4.736,5.087c0,1.909-1.153,3.596-2.935,4.298
				c-0.542,0.213-1.116,0.321-1.704,0.321h-1.411v1.34h1.411c0.756,0,1.495-0.141,2.197-0.414c2.301-0.905,3.786-3.083,3.786-5.545
				c0-3.165-2.431-5.972-5.389-6.376c0.008-0.131,0.013-0.26,0.013-0.385C68.769,43.231,64.928,39.407,60.024,39.407L60.024,39.407z
				 M57.332,50.78c-0.373,0.005-0.668,0.309-0.663,0.679v10.847c-0.534,0.129-1.018,0.353-1.343,0.717
				c-0.459,0.516-0.673,1.177-0.673,1.825c0,0.651,0.214,1.311,0.673,1.823c0.459,0.518,1.174,0.854,2.015,0.854
				c0.841,0,1.555-0.337,2.015-0.854c0.459-0.513,0.673-1.172,0.673-1.823c0-0.648-0.213-1.31-0.673-1.825
				c-0.325-0.364-0.809-0.588-1.343-0.717V51.459c0.003-0.181-0.069-0.354-0.198-0.483C57.688,50.845,57.513,50.777,57.332,50.78
				L57.332,50.78z M53.3,50.78c-0.198,0.005-0.382,0.098-0.508,0.248l-2.27,2.714c-0.805,0.963-1.247,2.177-1.247,3.43v5.134
				c-0.536,0.129-1.017,0.353-1.344,0.717c-0.459,0.516-0.674,1.177-0.674,1.825c0,0.651,0.215,1.311,0.674,1.823
				c0.459,0.518,1.177,0.854,2.017,0.854c0.839,0,1.556-0.337,2.016-0.854c0.459-0.513,0.673-1.172,0.673-1.823
				c0-0.648-0.214-1.31-0.673-1.825c-0.325-0.364-0.809-0.588-1.343-0.717v-5.134c0-0.94,0.329-1.849,0.935-2.57l2.268-2.713
				c0.175-0.201,0.212-0.485,0.1-0.724C53.809,50.926,53.565,50.774,53.3,50.78L53.3,50.78z M61.36,50.78
				c-0.262,0.005-0.499,0.158-0.604,0.395c-0.108,0.238-0.068,0.516,0.103,0.714l2.268,2.713c0.605,0.722,0.935,1.63,0.935,2.57
				v5.134c-0.534,0.129-1.018,0.353-1.342,0.717c-0.459,0.516-0.674,1.177-0.674,1.825c0,0.651,0.214,1.311,0.674,1.823
				c0.459,0.518,1.175,0.854,2.014,0.854c0.841,0,1.558-0.337,2.018-0.854c0.458-0.513,0.673-1.172,0.673-1.823
				c0-0.648-0.215-1.31-0.673-1.825c-0.327-0.364-0.809-0.588-1.345-0.717v-5.134c0-1.253-0.441-2.467-1.246-3.43l-2.27-2.714
				C61.762,50.87,61.566,50.78,61.36,50.78L61.36,50.78z M49.929,63.516c0.013,0.002,0.026,0.002,0.039,0.002
				c0.486,0.008,0.781,0.158,0.989,0.395c0.212,0.237,0.336,0.581,0.336,0.936c0,0.353-0.124,0.696-0.336,0.936
				c-0.213,0.239-0.505,0.402-1.009,0.402c-0.505,0-0.797-0.163-1.011-0.402c-0.212-0.239-0.334-0.583-0.334-0.936
				c0-0.354,0.122-0.698,0.334-0.936C49.146,63.676,49.44,63.522,49.929,63.516z M57.321,63.516
				c0.013,0.002,0.028,0.002,0.042,0.002c0.483,0.008,0.779,0.158,0.988,0.395c0.213,0.237,0.334,0.581,0.334,0.936
				c0,0.353-0.122,0.696-0.334,0.936c-0.213,0.239-0.506,0.402-1.01,0.402c-0.503,0-0.796-0.163-1.009-0.402
				c-0.213-0.239-0.335-0.583-0.335-0.936c0-0.354,0.122-0.698,0.335-0.936C56.541,63.676,56.835,63.522,57.321,63.516z
				 M64.716,63.516c0.014,0.002,0.026,0.002,0.04,0.002c0.486,0.008,0.781,0.158,0.99,0.395c0.212,0.237,0.334,0.581,0.334,0.936
				c0,0.353-0.122,0.696-0.334,0.936c-0.214,0.239-0.505,0.402-1.012,0.402c-0.503,0-0.795-0.163-1.008-0.402
				c-0.213-0.239-0.336-0.583-0.336-0.936c0-0.354,0.123-0.698,0.336-0.936C63.934,63.676,64.228,63.522,64.716,63.516z"/>
		</g>
	</g>
</g>
</svg>
