<?xml version="1.0" encoding="utf-8"?>
<!-- Generator: Adobe Illustrator 16.0.0, SVG Export Plug-In . SVG Version: 6.00 Build 0)  -->
<!DOCTYPE svg PUBLIC "-//W3C//DTD SVG 1.1//EN" "http://www.w3.org/Graphics/SVG/1.1/DTD/svg11.dtd">
<svg version="1.1" id="Layer_1" xmlns="http://www.w3.org/2000/svg" xmlns:xlink="http://www.w3.org/1999/xlink" x="0px" y="0px"
	 width="280px" height="265px" viewBox="0 0 280 265" enable-background="new 0 0 280 265" xml:space="preserve">
<g>
	<path fill="#F2F2F2" d="M274.431,247.075c0,7.107-5.787,12.873-12.926,12.873H18.496c-7.141,0-12.927-5.766-12.927-12.873V17.925
		c0-7.111,5.786-12.873,12.927-12.873h243.009c7.139,0,12.926,5.762,12.926,12.873V247.075z"/>
	<g>
		<g>
			<g opacity="0.6">
				<path fill="#FFFFFF" d="M252.821,223.731c0,2.021-1.643,3.662-3.673,3.662H30.85c-2.029,0-3.673-1.641-3.673-3.662v-32.083
					c0-2.021,1.644-3.661,3.673-3.661h218.299c2.03,0,3.673,1.64,3.673,3.661V223.731z"/>
			</g>
			<path fill="#2ECC71" d="M241.067,201.311l-1.393-0.945c-0.387-0.259-0.914-0.158-1.175,0.222l-6.831,10.037l-3.141-3.128
				c-0.328-0.327-0.863-0.327-1.191,0l-1.193,1.189c-0.33,0.327-0.33,0.86,0,1.189l4.828,4.81c0.271,0.27,0.697,0.475,1.078,0.475
				c0.385,0,0.771-0.238,1.018-0.6l8.225-12.085C241.556,202.093,241.453,201.569,241.067,201.311L241.067,201.311z"/>
			<path fill="#D9D9D9" d="M204.104,211.638c0,1.42-1.155,2.574-2.584,2.574H67.089c-1.426,0-2.585-1.154-2.585-2.574l0,0
				c0-1.424,1.159-2.575,2.585-2.575h134.432C202.949,209.063,204.104,210.214,204.104,211.638L204.104,211.638z"/>
			<path fill="#D9D9D9" d="M100.545,203.742c0,1.423-1.159,2.575-2.585,2.575H66.938c-1.43,0-2.584-1.152-2.584-2.575l0,0
				c0-1.421,1.155-2.575,2.584-2.575H97.96C99.386,201.167,100.545,202.321,100.545,203.742L100.545,203.742z"/>
			<path display="none" fill="#3248E9" d="M42.683,194.333c-4.94,0-8.939,3.985-8.939,8.906c0,4.068,2.155,8.439,4.275,11.828
				c2.124,3.387,4.246,5.789,4.246,5.789c0.106,0.121,0.259,0.189,0.418,0.189s0.314-0.068,0.419-0.189c0,0,2.126-2.453,4.244-5.859
				c2.12-3.406,4.279-7.77,4.279-11.758C51.625,198.318,47.625,194.333,42.683,194.333z M42.683,195.447
				c4.338,0,7.825,3.473,7.825,7.792c0,3.58-2.034,7.838-4.103,11.166c-1.738,2.789-3.207,4.584-3.722,5.199
				c-0.52-0.611-1.989-2.367-3.718-5.131c-2.071-3.303-4.104-7.568-4.104-11.234C34.86,198.92,38.347,195.447,42.683,195.447z
				 M42.683,199.9c-2.153,0-3.911,1.75-3.911,3.895c0,2.147,1.757,3.897,3.911,3.897c2.157,0,3.914-1.75,3.914-3.897
				C46.597,201.65,44.84,199.9,42.683,199.9z M42.683,201.012c1.551,0,2.794,1.239,2.794,2.783s-1.243,2.783-2.794,2.783
				c-1.549,0-2.794-1.239-2.794-2.783S41.134,201.012,42.683,201.012z"/>
			<path fill="#3248E9" d="M42.681,194.336c-4.938,0-8.933,3.978-8.933,8.908c0,4.068,2.147,8.435,4.279,11.817
				c2.118,3.387,4.24,5.793,4.24,5.793c0.104,0.119,0.257,0.193,0.414,0.193c0.167,0,0.31-0.074,0.427-0.193
				c0,0,2.118-2.457,4.238-5.855c2.12-3.412,4.279-7.777,4.279-11.755C51.625,198.313,47.619,194.336,42.681,194.336z
				 M42.681,207.688c-2.146,0-3.903-1.753-3.903-3.89c0-2.15,1.757-3.9,3.903-3.9c2.159,0,3.916,1.75,3.916,3.9
				C46.597,205.935,44.84,207.688,42.681,207.688z"/>
		</g>
		<g>
			<g opacity="0.6">
				<path fill="#FFFFFF" d="M252.821,172.237c0,2.021-1.643,3.661-3.673,3.661H30.85c-2.029,0-3.673-1.64-3.673-3.661v-32.084
					c0-2.021,1.644-3.66,3.673-3.66h218.299c2.03,0,3.673,1.639,3.673,3.66V172.237z"/>
			</g>
			<path fill="#2ECC71" d="M241.067,149.816l-1.393-0.945c-0.387-0.259-0.914-0.158-1.175,0.222l-6.831,10.037l-3.141-3.128
				c-0.328-0.327-0.863-0.327-1.191,0l-1.193,1.189c-0.33,0.326-0.33,0.859,0,1.189l4.828,4.81c0.271,0.27,0.697,0.476,1.078,0.476
				c0.385,0,0.771-0.239,1.018-0.602l8.225-12.084C241.556,150.599,241.453,150.075,241.067,149.816L241.067,149.816z"/>
			<path fill="#D9D9D9" d="M204.104,160.143c0,1.421-1.155,2.575-2.584,2.575H67.089c-1.426,0-2.585-1.154-2.585-2.575l0,0
				c0-1.423,1.159-2.574,2.585-2.574h134.432C202.949,157.568,204.104,158.72,204.104,160.143L204.104,160.143z"/>
			<path fill="#D9D9D9" d="M100.545,152.248c0,1.423-1.159,2.574-2.585,2.574H66.938c-1.43,0-2.584-1.151-2.584-2.574l0,0
				c0-1.421,1.155-2.575,2.584-2.575H97.96C99.386,149.673,100.545,150.827,100.545,152.248L100.545,152.248z"/>
			<path fill="#3248E9" d="M44.989,154.865l-3.763-0.905c-1.153-0.302-1.881-1.27-1.881-2.419c0-1.388,1.155-2.537,2.547-2.537h1.82
				c1.276,0,2.308,1.028,2.308,2.296c0,1.028,0.789,1.813,1.82,1.813c1.031,0,1.822-0.784,1.822-1.813
				c0-3.02-2.246-5.499-5.16-5.861v-0.786c0-1.026-0.79-1.813-1.82-1.813c-1.032,0-1.82,0.787-1.82,1.813v0.847
				c-2.914,0.483-5.158,3.022-5.158,6.042c0,2.842,1.941,5.258,4.673,5.984l3.761,0.905c1.151,0.305,1.88,1.27,1.88,2.419
				c0,1.391-1.153,2.537-2.549,2.537h-1.82c-1.272,0-2.306-1.026-2.306-2.296c0-1.028-0.787-1.813-1.82-1.813
				c-1.031,0-1.82,0.784-1.82,1.813c0,3.022,2.244,5.499,5.158,5.861v0.787c0,1.025,0.788,1.813,1.82,1.813
				c1.03,0,1.82-0.787,1.82-1.813v-0.848c2.914-0.482,5.16-3.02,5.16-6.042C49.663,157.948,47.721,155.531,44.989,154.865
				L44.989,154.865z"/>
		</g>
		<g>
			<g opacity="0.6">
				<path fill="#FFFFFF" d="M252.821,120.743c0,2.021-1.643,3.66-3.673,3.66H30.85c-2.029,0-3.673-1.639-3.673-3.66V88.659
					c0-2.021,1.644-3.661,3.673-3.661h218.299c2.03,0,3.673,1.64,3.673,3.661V120.743z"/>
			</g>
			<path fill="#2ECC71" d="M241.067,98.322l-1.393-0.945c-0.387-0.259-0.914-0.158-1.175,0.221l-6.831,10.038l-3.141-3.128
				c-0.328-0.327-0.863-0.327-1.191,0l-1.193,1.188c-0.33,0.327-0.33,0.86,0,1.189l4.828,4.811c0.271,0.269,0.697,0.475,1.078,0.475
				c0.385,0,0.771-0.238,1.018-0.601l8.225-12.084C241.556,99.104,241.453,98.581,241.067,98.322L241.067,98.322z"/>
			<path fill="#D9D9D9" d="M204.104,108.648c0,1.421-1.155,2.575-2.584,2.575H67.089c-1.426,0-2.585-1.154-2.585-2.575l0,0
				c0-1.423,1.159-2.574,2.585-2.574h134.432C202.949,106.074,204.104,107.226,204.104,108.648L204.104,108.648z"/>
			<path fill="#D9D9D9" d="M100.545,100.754c0,1.423-1.159,2.574-2.585,2.574H66.938c-1.43,0-2.584-1.151-2.584-2.574l0,0
				c0-1.421,1.155-2.575,2.584-2.575H97.96C99.386,98.179,100.545,99.333,100.545,100.754L100.545,100.754z"/>
			<g>
				<path fill="#3248E9" d="M34.803,117.431c-0.103,0-0.206-0.032-0.292-0.094c-0.154-0.111-0.232-0.3-0.201-0.488l1.428-8.582
					l-6.289-6.036c-0.138-0.132-0.188-0.331-0.13-0.512s0.214-0.315,0.402-0.343l8.638-1.3l3.826-7.825
					c0.083-0.17,0.256-0.279,0.447-0.28c0,0,0.001,0,0.002,0c0.189,0,0.362,0.106,0.447,0.275l3.909,7.782l8.651,1.206
					c0.189,0.026,0.346,0.158,0.406,0.338c0.06,0.181,0.012,0.38-0.125,0.514l-6.218,6.104l1.521,8.567
					c0.033,0.188-0.042,0.377-0.196,0.49c-0.087,0.064-0.192,0.097-0.296,0.097c-0.079,0-0.157-0.019-0.229-0.056l-7.755-4.008
					l-7.709,4.091C34.964,117.412,34.883,117.431,34.803,117.431z"/>
				<path fill="#3248E9" d="M42.634,92.471l4.026,8.017l8.911,1.242l-6.407,6.288l1.567,8.827l-7.988-4.128l-7.94,4.214l1.471-8.842
					l-6.479-6.219l8.897-1.339L42.634,92.471 M42.634,91.471c-0.002,0-0.003,0-0.005,0c-0.38,0.002-0.726,0.219-0.893,0.561
					l-3.711,7.589l-8.378,1.261c-0.377,0.057-0.688,0.323-0.804,0.686c-0.115,0.363-0.014,0.76,0.261,1.024l6.099,5.854
					l-1.384,8.321c-0.063,0.375,0.093,0.753,0.402,0.976c0.173,0.125,0.378,0.188,0.584,0.188c0.161,0,0.322-0.039,0.469-0.117
					l7.478-3.968l7.522,3.887c0.145,0.075,0.302,0.112,0.459,0.112c0.209,0,0.418-0.066,0.593-0.195
					c0.307-0.226,0.458-0.605,0.392-0.98l-1.475-8.308l6.031-5.918c0.272-0.267,0.368-0.666,0.249-1.027
					c-0.12-0.362-0.434-0.625-0.812-0.677l-8.391-1.17l-3.791-7.547C43.357,91.684,43.012,91.471,42.634,91.471L42.634,91.471z"/>
			</g>
		</g>
	</g>
	<g>
		<text transform="matrix(1.0041 0 0 1 61.6904 47.6826)" fill="#3248E9" font-family="'Roboto-Bold'" font-size="12.8736">XYZ Corporation</text>
		<g>
			<path fill="#3248E9" d="M44.764,28.493c-0.082,0.007-0.159,0.035-0.231,0.074L33.403,34.59c-0.2,0.105-0.326,0.314-0.328,0.54
				v1.982c0,0.339,0.276,0.615,0.618,0.615h1.237v2.598l1.234-0.674v-2.328l8.658-4.752l8.654,4.752v15.795h-4.945v1.232h5.563
				c0.341,0,0.62-0.276,0.62-0.616V37.728h1.233c0.341,0,0.618-0.276,0.618-0.615V35.13c-0.002-0.226-0.125-0.435-0.327-0.54
				l-11.125-6.022C45.003,28.508,44.885,28.482,44.764,28.493L44.764,28.493z M44.822,29.8l10.51,5.695v1.001H54.54l-9.427-5.157
				c-0.182-0.096-0.4-0.096-0.581,0l-9.427,5.157h-0.794v-1.001L44.822,29.8z M38.581,39.573c-0.083,0.01-0.159,0.038-0.231,0.078
				l-9.892,5.406c-0.2,0.105-0.326,0.314-0.328,0.537v1.984c0,0.34,0.276,0.616,0.618,0.616h1.237v8.003
				c0,0.34,0.277,0.616,0.618,0.616h16.073c0.339,0,0.618-0.276,0.618-0.616v-8.003h1.238c0.341,0,0.617-0.276,0.617-0.616v-1.984
				c-0.002-0.223-0.127-0.432-0.327-0.537l-9.892-5.406C38.824,39.591,38.702,39.563,38.581,39.573L38.581,39.573z M38.639,40.884
				l9.272,5.078v1.002h-0.792l-8.172-4.541c-0.19-0.111-0.428-0.111-0.618,0l-8.17,4.541h-0.794v-1.002L38.639,40.884z
				 M38.639,43.672l7.417,4.118v7.792H31.219V47.79L38.639,43.672z"/>
		</g>
	</g>
</g>
</svg>
